<svg width="137" height="84" viewBox="0 0 137 84" fill="none" xmlns="http://www.w3.org/2000/svg">
    <mask id="mask0_1_106" style="mask-type:alpha" maskUnits="userSpaceOnUse" x="48" y="0" width="42" height="44">
        <path fill-rule="evenodd" clip-rule="evenodd" d="M48 0.0223999H89.5863V43.2H48V0.0223999Z" fill="white"/>
    </mask>
    <g mask="url(#mask0_1_106)">
        <path fill-rule="evenodd" clip-rule="evenodd" d="M87.0291 35.9496C86.1766 35.0036 79.3573 32.5204 78.383 32.0473C77.409 31.5744 76.0693 30.7467 76.0693 30.7467L75.6445 30.163L74.608 30.0372C73.8213 30.1112 73.7363 27.9748 73.781 26.387C79.6382 26.04 81.5195 24.9577 82.0861 24.4569L81.1658 23.6128C81.6091 23.9139 82.0078 24.108 82.2962 24.2267C82.3086 24.2078 82.3133 24.1974 82.3133 24.1974C81.0678 23.2542 80.1779 19.5446 80.1779 19.5446C79.4662 17.7212 78.9325 11.1198 78.9325 11.1198C78.9325 9.23357 78.2208 7.28445 78.2208 7.28445C76.9158 3.32349 74.0096 1.50013 74.0096 1.50013C73.771 1.35053 73.5291 1.21709 73.287 1.09549C73.045 0.984446 71.54 0.319806 69.691 0.0817262C68.5597 -0.0333138 67.7816 0.0542062 67.7816 0.0542062C67.1606 0.106526 66.5786 0.220286 66.0346 0.379486C65.2037 0.675326 64.4166 1.16669 63.7483 1.93357C63.7483 1.93357 63.7438 1.92029 63.7072 1.91741C61.2992 0.951966 59.5477 6.08701 59.5438 6.09821C59.0282 7.34109 58.5584 9.43789 58.5584 9.43789L58.2024 13.6347C57.9354 17.2184 56.5563 21.6982 56.5563 21.6982C56.0226 23.3489 54.9994 24.1504 54.9994 24.1504C55.2346 24.3894 55.5222 24.6028 55.848 24.7931C56.0352 24.6979 56.4821 24.4585 56.9061 24.1428L56.1861 24.9756C57.7829 25.776 60.0802 26.1156 61.7432 26.26C61.9142 25.1515 62.201 22.8966 62.0648 20.942C62.1974 22.2702 62.4414 24.9523 62.4014 26.31C63.1302 26.3572 63.6525 26.3651 63.805 26.3664C63.8509 27.9563 63.7686 30.1115 62.9786 30.0372L61.9421 30.163L61.5171 30.7467C61.5171 30.7467 60.1776 31.5744 59.2034 32.0473C58.2293 32.5204 51.4098 35.0036 50.5573 35.9496C49.705 36.8955 48.1219 38.1528 48 40.8944V43.2H89.5864V40.8944C89.4646 38.1528 87.8816 36.8955 87.0291 35.9496" fill="#5B6971"/>
    </g>
    <path d="M17.5674 65.1504L14.21 78H11.9072L9.7627 70.3008C9.70996 70.1133 9.65137 69.8906 9.58691 69.6328C9.52246 69.375 9.45801 69.1113 9.39355 68.8418C9.33496 68.5723 9.28223 68.3262 9.23535 68.1035C9.19434 67.875 9.16504 67.6992 9.14746 67.5762C9.13574 67.6992 9.10938 67.8721 9.06836 68.0947C9.02734 68.3174 8.97754 68.5635 8.91895 68.833C8.86621 69.0967 8.80762 69.3604 8.74316 69.624C8.67871 69.8818 8.62012 70.1104 8.56738 70.3096L6.45801 78H4.16406L0.81543 65.1504H2.93359L4.78809 72.6826C4.84668 72.9229 4.90527 73.1836 4.96387 73.4648C5.02832 73.7402 5.08691 74.0186 5.13965 74.2998C5.19824 74.5811 5.25098 74.8564 5.29785 75.126C5.34473 75.3896 5.38281 75.6299 5.41211 75.8467C5.44141 75.624 5.47949 75.3779 5.52637 75.1084C5.57324 74.833 5.62305 74.5547 5.67578 74.2734C5.73438 73.9863 5.79297 73.7109 5.85156 73.4473C5.91602 73.1836 5.98047 72.9463 6.04492 72.7354L8.13672 65.1504H10.1934L12.3291 72.7617C12.3936 72.9785 12.4551 73.2217 12.5137 73.4912C12.5781 73.7607 12.6396 74.0361 12.6982 74.3174C12.7568 74.5986 12.8096 74.8711 12.8564 75.1348C12.9033 75.3984 12.9414 75.6357 12.9707 75.8467C13.0117 75.5596 13.0645 75.2314 13.1289 74.8623C13.1934 74.4932 13.2666 74.1182 13.3486 73.7373C13.4307 73.3564 13.5127 73.0049 13.5947 72.6826L15.4404 65.1504H17.5674ZM27.7891 73.1133C27.7891 73.9219 27.6836 74.6396 27.4727 75.2666C27.2617 75.8936 26.9541 76.4238 26.5498 76.8574C26.1455 77.2852 25.6592 77.6133 25.0908 77.8418C24.5225 78.0645 23.8809 78.1758 23.166 78.1758C22.498 78.1758 21.8857 78.0645 21.3291 77.8418C20.7725 77.6133 20.2891 77.2852 19.8789 76.8574C19.4746 76.4238 19.1611 75.8936 18.9385 75.2666C18.7158 74.6396 18.6045 73.9219 18.6045 73.1133C18.6045 72.041 18.7891 71.1328 19.1582 70.3887C19.5332 69.6387 20.0664 69.0674 20.7578 68.6748C21.4492 68.2822 22.2725 68.0859 23.2275 68.0859C24.124 68.0859 24.915 68.2822 25.6006 68.6748C26.2861 69.0674 26.8223 69.6387 27.209 70.3887C27.5957 71.1387 27.7891 72.0469 27.7891 73.1133ZM20.7314 73.1133C20.7314 73.8223 20.8164 74.4287 20.9863 74.9326C21.1621 75.4365 21.4316 75.8232 21.7949 76.0928C22.1582 76.3564 22.627 76.4883 23.2012 76.4883C23.7754 76.4883 24.2441 76.3564 24.6074 76.0928C24.9707 75.8232 25.2373 75.4365 25.4072 74.9326C25.5771 74.4287 25.6621 73.8223 25.6621 73.1133C25.6621 72.4043 25.5771 71.8037 25.4072 71.3115C25.2373 70.8135 24.9707 70.4355 24.6074 70.1777C24.2441 69.9141 23.7725 69.7822 23.1924 69.7822C22.3369 69.7822 21.7129 70.0693 21.3203 70.6436C20.9277 71.2178 20.7314 72.041 20.7314 73.1133ZM41.1572 68.0859C42.2471 68.0859 43.0674 68.3672 43.6182 68.9297C44.1748 69.4922 44.4531 70.3945 44.4531 71.6367V78H42.3877V72.0059C42.3877 71.2676 42.2441 70.7109 41.957 70.3359C41.6699 69.9609 41.2334 69.7734 40.6475 69.7734C39.8271 69.7734 39.2354 70.0371 38.8721 70.5645C38.5146 71.0859 38.3359 71.8447 38.3359 72.8408V78H36.2705V72.0059C36.2705 71.5137 36.2061 71.1035 36.0771 70.7754C35.9541 70.4414 35.7637 70.1924 35.5059 70.0283C35.248 69.8584 34.9229 69.7734 34.5303 69.7734C33.9619 69.7734 33.5078 69.9023 33.168 70.1602C32.834 70.418 32.5938 70.7988 32.4473 71.3027C32.3008 71.8008 32.2275 72.4131 32.2275 73.1396V78H30.1621V68.2705H31.7705L32.0605 69.5801H32.1748C32.374 69.2402 32.6201 68.9619 32.9131 68.7451C33.2119 68.5225 33.543 68.3584 33.9062 68.2529C34.2695 68.1416 34.6475 68.0859 35.04 68.0859C35.7666 68.0859 36.3789 68.2148 36.877 68.4727C37.375 68.7246 37.7471 69.1113 37.9932 69.6328H38.1514C38.4561 69.1055 38.8809 68.7158 39.4258 68.4639C39.9707 68.2119 40.5479 68.0859 41.1572 68.0859ZM51.2119 68.0859C52.0791 68.0859 52.8232 68.2646 53.4443 68.6221C54.0654 68.9795 54.543 69.4863 54.877 70.1426C55.2109 70.7988 55.3779 71.584 55.3779 72.498V73.6055H48.8828C48.9062 74.5488 49.1582 75.2754 49.6387 75.7852C50.125 76.2949 50.8047 76.5498 51.6777 76.5498C52.2988 76.5498 52.8555 76.4912 53.3477 76.374C53.8457 76.251 54.3584 76.0723 54.8857 75.8379V77.5166C54.3994 77.7451 53.9043 77.9121 53.4004 78.0176C52.8965 78.123 52.293 78.1758 51.5898 78.1758C50.6348 78.1758 49.7939 77.9912 49.0674 77.6221C48.3467 77.2471 47.7812 76.6904 47.3711 75.9521C46.9668 75.2139 46.7646 74.2969 46.7646 73.2012C46.7646 72.1113 46.9492 71.1855 47.3184 70.4238C47.6875 69.6621 48.2061 69.082 48.874 68.6836C49.542 68.2852 50.3213 68.0859 51.2119 68.0859ZM51.2119 69.6416C50.5615 69.6416 50.0342 69.8525 49.6299 70.2744C49.2314 70.6963 48.9971 71.3145 48.9268 72.1289H53.3564C53.3506 71.6426 53.2686 71.2119 53.1104 70.8369C52.958 70.4619 52.7236 70.1689 52.4072 69.958C52.0967 69.7471 51.6982 69.6416 51.2119 69.6416ZM62.7783 68.0859C63.874 68.0859 64.7266 68.3701 65.3359 68.9385C65.9512 69.501 66.2588 70.4062 66.2588 71.6543V78H64.1934V72.041C64.1934 71.2852 64.0381 70.7197 63.7275 70.3447C63.417 69.9639 62.9365 69.7734 62.2861 69.7734C61.3428 69.7734 60.6865 70.0635 60.3174 70.6436C59.9541 71.2236 59.7725 72.0645 59.7725 73.166V78H57.707V68.2705H59.3154L59.6055 69.5889H59.7197C59.9307 69.249 60.1914 68.9707 60.502 68.7539C60.8184 68.5312 61.1699 68.3643 61.5566 68.2529C61.9492 68.1416 62.3564 68.0859 62.7783 68.0859ZM70.873 65.1504L70.5215 69.791H69.1943L68.8516 65.1504H70.873ZM80.0664 75.2227C80.0664 75.8613 79.9111 76.4004 79.6006 76.8398C79.29 77.2793 78.8359 77.6133 78.2383 77.8418C77.6465 78.0645 76.9199 78.1758 76.0586 78.1758C75.3789 78.1758 74.793 78.126 74.3008 78.0264C73.8145 77.9326 73.3545 77.7861 72.9209 77.5869V75.8027C73.3838 76.0195 73.9023 76.207 74.4766 76.3652C75.0566 76.5234 75.6045 76.6025 76.1201 76.6025C76.7998 76.6025 77.2891 76.4971 77.5879 76.2861C77.8867 76.0693 78.0361 75.7822 78.0361 75.4248C78.0361 75.2139 77.9746 75.0264 77.8516 74.8623C77.7344 74.6924 77.5117 74.5195 77.1836 74.3438C76.8613 74.1621 76.3867 73.9453 75.7598 73.6934C75.1445 73.4473 74.626 73.2012 74.2041 72.9551C73.7822 72.709 73.4629 72.4131 73.2461 72.0674C73.0293 71.7158 72.9209 71.2676 72.9209 70.7227C72.9209 69.8613 73.2607 69.208 73.9404 68.7627C74.626 68.3115 75.5312 68.0859 76.6562 68.0859C77.2539 68.0859 77.8164 68.1475 78.3438 68.2705C78.877 68.3877 79.3984 68.5605 79.9082 68.7891L79.2578 70.3447C78.8184 70.1514 78.376 69.9932 77.9307 69.8701C77.4912 69.7412 77.043 69.6768 76.5859 69.6768C76.0527 69.6768 75.6455 69.7588 75.3643 69.9229C75.0889 70.0869 74.9512 70.3213 74.9512 70.626C74.9512 70.8545 75.0186 71.0479 75.1533 71.2061C75.2881 71.3643 75.5195 71.5225 75.8477 71.6807C76.1816 71.8389 76.6445 72.0352 77.2363 72.2695C77.8164 72.4922 78.3174 72.7266 78.7393 72.9727C79.167 73.2129 79.4951 73.5088 79.7236 73.8604C79.9521 74.2119 80.0664 74.666 80.0664 75.2227ZM94.6035 74.502C94.6035 75.2637 94.416 75.9199 94.041 76.4707C93.6719 77.0215 93.1387 77.4434 92.4414 77.7363C91.75 78.0293 90.9238 78.1758 89.9629 78.1758C89.4941 78.1758 89.0459 78.1494 88.6182 78.0967C88.1904 78.0439 87.7861 77.9678 87.4053 77.8682C87.0303 77.7627 86.6875 77.6367 86.377 77.4902V75.5039C86.8984 75.7324 87.4814 75.9404 88.126 76.1279C88.7705 76.3096 89.4268 76.4004 90.0947 76.4004C90.6396 76.4004 91.0908 76.3301 91.4482 76.1895C91.8115 76.043 92.0811 75.8379 92.2568 75.5742C92.4326 75.3047 92.5205 74.9912 92.5205 74.6338C92.5205 74.2529 92.418 73.9307 92.2129 73.667C92.0078 73.4033 91.6973 73.1631 91.2812 72.9463C90.8711 72.7236 90.3555 72.4863 89.7344 72.2344C89.3125 72.0645 88.9082 71.8711 88.5215 71.6543C88.1406 71.4375 87.8008 71.1826 87.502 70.8896C87.2031 70.5967 86.9658 70.251 86.79 69.8525C86.6201 69.4482 86.5352 68.9736 86.5352 68.4287C86.5352 67.7021 86.708 67.0811 87.0537 66.5654C87.4053 66.0498 87.8975 65.6543 88.5303 65.3789C89.1689 65.1035 89.9131 64.9658 90.7627 64.9658C91.4365 64.9658 92.0693 65.0361 92.6611 65.1768C93.2588 65.3174 93.8447 65.5166 94.4189 65.7744L93.751 67.4707C93.2236 67.2539 92.7109 67.0811 92.2129 66.9521C91.7207 66.8232 91.2168 66.7588 90.7012 66.7588C90.2559 66.7588 89.8779 66.8262 89.5674 66.9609C89.2568 67.0957 89.0195 67.2861 88.8555 67.5322C88.6973 67.7725 88.6182 68.0596 88.6182 68.3936C88.6182 68.7686 88.709 69.085 88.8906 69.3428C89.0781 69.5947 89.3652 69.8262 89.752 70.0371C90.1445 70.248 90.6484 70.4824 91.2637 70.7402C91.9727 71.0332 92.5732 71.3408 93.0654 71.6631C93.5635 71.9854 93.9443 72.3721 94.208 72.8232C94.4717 73.2686 94.6035 73.8281 94.6035 74.502ZM100.492 76.5059C100.762 76.5059 101.028 76.4824 101.292 76.4355C101.556 76.3828 101.796 76.3213 102.013 76.251V77.8154C101.784 77.915 101.488 78 101.125 78.0703C100.762 78.1406 100.384 78.1758 99.9912 78.1758C99.4404 78.1758 98.9453 78.085 98.5059 77.9033C98.0664 77.7158 97.7178 77.3965 97.46 76.9453C97.2021 76.4941 97.0732 75.8701 97.0732 75.0732V69.8438H95.7461V68.9209L97.1699 68.1914L97.8467 66.1084H99.1475V68.2705H101.934V69.8438H99.1475V75.0469C99.1475 75.5391 99.2705 75.9053 99.5166 76.1455C99.7627 76.3857 100.088 76.5059 100.492 76.5059ZM102.522 68.2705H104.772L106.768 73.8252C106.855 74.0771 106.935 74.3262 107.005 74.5723C107.081 74.8125 107.146 75.0498 107.198 75.2842C107.257 75.5186 107.304 75.7529 107.339 75.9873H107.392C107.45 75.6826 107.532 75.3428 107.638 74.9678C107.749 74.5869 107.872 74.2061 108.007 73.8252L109.923 68.2705H112.146L107.972 79.3359C107.731 79.9688 107.436 80.5078 107.084 80.9531C106.738 81.4043 106.328 81.7441 105.854 81.9727C105.379 82.207 104.837 82.3242 104.228 82.3242C103.935 82.3242 103.68 82.3066 103.463 82.2715C103.246 82.2422 103.062 82.21 102.909 82.1748V80.5225C103.032 80.5518 103.188 80.5781 103.375 80.6016C103.562 80.625 103.756 80.6367 103.955 80.6367C104.324 80.6367 104.644 80.5635 104.913 80.417C105.183 80.2705 105.411 80.0625 105.599 79.793C105.786 79.5293 105.941 79.2275 106.064 78.8877L106.407 77.9736L102.522 68.2705ZM115.697 78H113.623V64.3242H115.697V78ZM122.526 68.0859C123.394 68.0859 124.138 68.2646 124.759 68.6221C125.38 68.9795 125.857 69.4863 126.191 70.1426C126.525 70.7988 126.692 71.584 126.692 72.498V73.6055H120.197C120.221 74.5488 120.473 75.2754 120.953 75.7852C121.439 76.2949 122.119 76.5498 122.992 76.5498C123.613 76.5498 124.17 76.4912 124.662 76.374C125.16 76.251 125.673 76.0723 126.2 75.8379V77.5166C125.714 77.7451 125.219 77.9121 124.715 78.0176C124.211 78.123 123.607 78.1758 122.904 78.1758C121.949 78.1758 121.108 77.9912 120.382 77.6221C119.661 77.2471 119.096 76.6904 118.686 75.9521C118.281 75.2139 118.079 74.2969 118.079 73.2012C118.079 72.1113 118.264 71.1855 118.633 70.4238C119.002 69.6621 119.521 69.082 120.188 68.6836C120.856 68.2852 121.636 68.0859 122.526 68.0859ZM122.526 69.6416C121.876 69.6416 121.349 69.8525 120.944 70.2744C120.546 70.6963 120.312 71.3145 120.241 72.1289H124.671C124.665 71.6426 124.583 71.2119 124.425 70.8369C124.272 70.4619 124.038 70.1689 123.722 69.958C123.411 69.7471 123.013 69.6416 122.526 69.6416ZM135.561 75.2227C135.561 75.8613 135.405 76.4004 135.095 76.8398C134.784 77.2793 134.33 77.6133 133.732 77.8418C133.141 78.0645 132.414 78.1758 131.553 78.1758C130.873 78.1758 130.287 78.126 129.795 78.0264C129.309 77.9326 128.849 77.7861 128.415 77.5869V75.8027C128.878 76.0195 129.396 76.207 129.971 76.3652C130.551 76.5234 131.099 76.6025 131.614 76.6025C132.294 76.6025 132.783 76.4971 133.082 76.2861C133.381 76.0693 133.53 75.7822 133.53 75.4248C133.53 75.2139 133.469 75.0264 133.346 74.8623C133.229 74.6924 133.006 74.5195 132.678 74.3438C132.355 74.1621 131.881 73.9453 131.254 73.6934C130.639 73.4473 130.12 73.2012 129.698 72.9551C129.276 72.709 128.957 72.4131 128.74 72.0674C128.523 71.7158 128.415 71.2676 128.415 70.7227C128.415 69.8613 128.755 69.208 129.435 68.7627C130.12 68.3115 131.025 68.0859 132.15 68.0859C132.748 68.0859 133.311 68.1475 133.838 68.2705C134.371 68.3877 134.893 68.5605 135.402 68.7891L134.752 70.3447C134.312 70.1514 133.87 69.9932 133.425 69.8701C132.985 69.7412 132.537 69.6768 132.08 69.6768C131.547 69.6768 131.14 69.7588 130.858 69.9229C130.583 70.0869 130.445 70.3213 130.445 70.626C130.445 70.8545 130.513 71.0479 130.647 71.2061C130.782 71.3643 131.014 71.5225 131.342 71.6807C131.676 71.8389 132.139 72.0352 132.73 72.2695C133.311 72.4922 133.812 72.7266 134.233 72.9727C134.661 73.2129 134.989 73.5088 135.218 73.8604C135.446 74.2119 135.561 74.666 135.561 75.2227Z" fill="#425A60"/>
</svg>
