<svg width="108" height="81" viewBox="0 0 108 81" fill="none" xmlns="http://www.w3.org/2000/svg">
    <path fill-rule="evenodd" clip-rule="evenodd" d="M75.8136 39.6695C75.7805 39.5673 75.6592 39.2302 75.6592 39.2302C75.6162 39.1217 75.5717 39.0153 75.5246 38.9129C75.5246 38.9129 75.4654 38.806 75.4267 38.7727C75.0258 38.4324 73.3472 37.1369 69.7878 35.9567C69.7878 35.9567 64.0734 33.6394 63.8035 33.4145C63.5336 33.1895 61.9136 32.4922 61.9136 32.4922C61.9136 32.4922 61.7558 32.2562 61.5773 31.7617C61.4226 31.2726 61.2648 30.5911 61.1866 29.6975L61.1358 29.6796C61.1339 29.6604 61.1314 29.6428 61.1296 29.6234H60.9762L60.3867 29.4159L60.0915 26.7446V25.3553C60.1037 25.3103 60.1176 25.2642 60.1336 25.217C60.3872 24.8778 60.5859 24.5153 60.7413 24.1513C61.0936 23.5407 61.4677 22.6274 61.7374 21.489C62.1235 21.819 62.3234 21.0554 62.3234 21.0554C62.6446 20.137 63.613 17.8641 63.613 17.8641C64.0086 17.1022 63.9254 16.0489 63.9254 16.0489C63.9744 14.9666 63.4946 14.7086 62.969 15.3186C63.0251 14.9838 63.1365 14.2566 63.1854 13.8994C63.8973 11.1279 62.727 7.27144 62.727 7.27144C62.6432 6.96696 62.6931 7.13544 62.6147 6.91208C62.1906 5.85128 61.1891 3.57608 58.2616 1.82104C55.3101 0.0516038 56.8674 0.106324 57.2333 0.0424838C57.2333 0.0424838 53.3474 -0.483116 49.4389 2.16312C49.6686 1.78056 50.1354 1.3012 50.1354 1.3012C48.5355 2.22968 48.035 2.96264 47.8885 3.39496C47.7485 3.52424 47.6094 3.6588 47.4709 3.798C46.2085 3.82328 45.143 5.07608 45.143 5.07608L46.0443 4.7676C44.4992 5.47272 44.5851 7.3676 44.5851 7.3676L45.2144 6.82344C45.0706 7.02072 44.9469 7.23032 44.8413 7.44952C43.9654 9.26952 44.3466 11.7668 44.8322 13.5694C44.9429 14.0247 45.0982 14.703 45.2245 15.4017C44.0066 14.1818 44.2594 17.1783 44.2594 17.1783C44.3107 17.8647 44.871 18.869 44.871 18.869C45.1573 19.6329 45.6152 20.7492 45.6152 20.7492C45.9598 21.7145 46.253 21.8164 46.4475 21.7111C46.656 22.5092 46.9216 23.3756 47.207 23.931C47.207 23.931 47.2178 23.9498 47.2357 23.9812C47.5802 24.818 47.961 25.2079 47.961 25.2079L47.92 27.6108C47.8211 28.5153 47.7213 29.422 47.7213 29.422L46.933 29.633C46.933 29.633 46.7394 31.5262 46.2698 32.5111C45.6187 32.8174 40.0702 35.421 38.6731 35.8446C38.6731 35.8446 34.4182 37.3436 32.7502 38.7926C32.7502 38.7926 32.5509 39.0225 32.5034 39.1322C32.4944 39.1537 32.4864 39.1764 32.4776 39.1983C32.4776 39.1983 32.3747 39.4556 32.3136 39.6534V39.6537C32.1446 40.1894 32.0301 40.7962 32 41.4914V43.1777H76.1251V41.4914C76.0952 40.802 75.9805 40.2017 75.8136 39.6695" fill="#5B6971"/>
    <path d="M7.70801 75L4.00781 64.2686H3.92871C3.94629 64.5088 3.9668 64.8369 3.99023 65.2529C4.01367 65.6689 4.03418 66.1143 4.05176 66.5889C4.06934 67.0635 4.07812 67.5176 4.07812 67.9512V75H2.16211V62.1504H5.12402L8.68359 72.4072H8.73633L12.4189 62.1504H15.3721V75H13.3594V67.8457C13.3594 67.4531 13.3652 67.0283 13.377 66.5713C13.3945 66.1143 13.4121 65.6807 13.4297 65.2705C13.4531 64.8604 13.4707 64.5322 13.4824 64.2861H13.4121L9.57129 75H7.70801ZM22.4209 65.0859C23.2881 65.0859 24.0322 65.2646 24.6533 65.6221C25.2744 65.9795 25.752 66.4863 26.0859 67.1426C26.4199 67.7988 26.5869 68.584 26.5869 69.498V70.6055H20.0918C20.1152 71.5488 20.3672 72.2754 20.8477 72.7852C21.334 73.2949 22.0137 73.5498 22.8867 73.5498C23.5078 73.5498 24.0645 73.4912 24.5566 73.374C25.0547 73.251 25.5674 73.0723 26.0947 72.8379V74.5166C25.6084 74.7451 25.1133 74.9121 24.6094 75.0176C24.1055 75.123 23.502 75.1758 22.7988 75.1758C21.8438 75.1758 21.0029 74.9912 20.2764 74.6221C19.5557 74.2471 18.9902 73.6904 18.5801 72.9521C18.1758 72.2139 17.9736 71.2969 17.9736 70.2012C17.9736 69.1113 18.1582 68.1855 18.5273 67.4238C18.8965 66.6621 19.415 66.082 20.083 65.6836C20.751 65.2852 21.5303 65.0859 22.4209 65.0859ZM22.4209 66.6416C21.7705 66.6416 21.2432 66.8525 20.8389 67.2744C20.4404 67.6963 20.2061 68.3145 20.1357 69.1289H24.5654C24.5596 68.6426 24.4775 68.2119 24.3193 67.8369C24.167 67.4619 23.9326 67.1689 23.6162 66.958C23.3057 66.7471 22.9072 66.6416 22.4209 66.6416ZM33.9873 65.0859C35.083 65.0859 35.9355 65.3701 36.5449 65.9385C37.1602 66.501 37.4678 67.4062 37.4678 68.6543V75H35.4023V69.041C35.4023 68.2852 35.2471 67.7197 34.9365 67.3447C34.626 66.9639 34.1455 66.7734 33.4951 66.7734C32.5518 66.7734 31.8955 67.0635 31.5264 67.6436C31.1631 68.2236 30.9814 69.0645 30.9814 70.166V75H28.916V65.2705H30.5244L30.8145 66.5889H30.9287C31.1396 66.249 31.4004 65.9707 31.7109 65.7539C32.0273 65.5312 32.3789 65.3643 32.7656 65.2529C33.1582 65.1416 33.5654 65.0859 33.9873 65.0859ZM42.082 62.1504L41.7305 66.791H40.4033L40.0605 62.1504H42.082ZM51.2754 72.2227C51.2754 72.8613 51.1201 73.4004 50.8096 73.8398C50.499 74.2793 50.0449 74.6133 49.4473 74.8418C48.8555 75.0645 48.1289 75.1758 47.2676 75.1758C46.5879 75.1758 46.002 75.126 45.5098 75.0264C45.0234 74.9326 44.5635 74.7861 44.1299 74.5869V72.8027C44.5928 73.0195 45.1113 73.207 45.6855 73.3652C46.2656 73.5234 46.8135 73.6025 47.3291 73.6025C48.0088 73.6025 48.498 73.4971 48.7969 73.2861C49.0957 73.0693 49.2451 72.7822 49.2451 72.4248C49.2451 72.2139 49.1836 72.0264 49.0605 71.8623C48.9434 71.6924 48.7207 71.5195 48.3926 71.3438C48.0703 71.1621 47.5957 70.9453 46.9688 70.6934C46.3535 70.4473 45.835 70.2012 45.4131 69.9551C44.9912 69.709 44.6719 69.4131 44.4551 69.0674C44.2383 68.7158 44.1299 68.2676 44.1299 67.7227C44.1299 66.8613 44.4697 66.208 45.1494 65.7627C45.835 65.3115 46.7402 65.0859 47.8652 65.0859C48.4629 65.0859 49.0254 65.1475 49.5527 65.2705C50.0859 65.3877 50.6074 65.5605 51.1172 65.7891L50.4668 67.3447C50.0273 67.1514 49.585 66.9932 49.1396 66.8701C48.7002 66.7412 48.252 66.6768 47.7949 66.6768C47.2617 66.6768 46.8545 66.7588 46.5732 66.9229C46.2979 67.0869 46.1602 67.3213 46.1602 67.626C46.1602 67.8545 46.2275 68.0479 46.3623 68.2061C46.4971 68.3643 46.7285 68.5225 47.0566 68.6807C47.3906 68.8389 47.8535 69.0352 48.4453 69.2695C49.0254 69.4922 49.5264 69.7266 49.9482 69.9727C50.376 70.2129 50.7041 70.5088 50.9326 70.8604C51.1611 71.2119 51.2754 71.666 51.2754 72.2227ZM65.8125 71.502C65.8125 72.2637 65.625 72.9199 65.25 73.4707C64.8809 74.0215 64.3477 74.4434 63.6504 74.7363C62.959 75.0293 62.1328 75.1758 61.1719 75.1758C60.7031 75.1758 60.2549 75.1494 59.8271 75.0967C59.3994 75.0439 58.9951 74.9678 58.6143 74.8682C58.2393 74.7627 57.8965 74.6367 57.5859 74.4902V72.5039C58.1074 72.7324 58.6904 72.9404 59.335 73.1279C59.9795 73.3096 60.6357 73.4004 61.3037 73.4004C61.8486 73.4004 62.2998 73.3301 62.6572 73.1895C63.0205 73.043 63.29 72.8379 63.4658 72.5742C63.6416 72.3047 63.7295 71.9912 63.7295 71.6338C63.7295 71.2529 63.627 70.9307 63.4219 70.667C63.2168 70.4033 62.9062 70.1631 62.4902 69.9463C62.0801 69.7236 61.5645 69.4863 60.9434 69.2344C60.5215 69.0645 60.1172 68.8711 59.7305 68.6543C59.3496 68.4375 59.0098 68.1826 58.7109 67.8896C58.4121 67.5967 58.1748 67.251 57.999 66.8525C57.8291 66.4482 57.7441 65.9736 57.7441 65.4287C57.7441 64.7021 57.917 64.0811 58.2627 63.5654C58.6143 63.0498 59.1064 62.6543 59.7393 62.3789C60.3779 62.1035 61.1221 61.9658 61.9717 61.9658C62.6455 61.9658 63.2783 62.0361 63.8701 62.1768C64.4678 62.3174 65.0537 62.5166 65.6279 62.7744L64.96 64.4707C64.4326 64.2539 63.9199 64.0811 63.4219 63.9521C62.9297 63.8232 62.4258 63.7588 61.9102 63.7588C61.4648 63.7588 61.0869 63.8262 60.7764 63.9609C60.4658 64.0957 60.2285 64.2861 60.0645 64.5322C59.9062 64.7725 59.8271 65.0596 59.8271 65.3936C59.8271 65.7686 59.918 66.085 60.0996 66.3428C60.2871 66.5947 60.5742 66.8262 60.9609 67.0371C61.3535 67.248 61.8574 67.4824 62.4727 67.7402C63.1816 68.0332 63.7822 68.3408 64.2744 68.6631C64.7725 68.9854 65.1533 69.3721 65.417 69.8232C65.6807 70.2686 65.8125 70.8281 65.8125 71.502ZM71.7012 73.5059C71.9707 73.5059 72.2373 73.4824 72.501 73.4355C72.7646 73.3828 73.0049 73.3213 73.2217 73.251V74.8154C72.9932 74.915 72.6973 75 72.334 75.0703C71.9707 75.1406 71.5928 75.1758 71.2002 75.1758C70.6494 75.1758 70.1543 75.085 69.7148 74.9033C69.2754 74.7158 68.9268 74.3965 68.6689 73.9453C68.4111 73.4941 68.2822 72.8701 68.2822 72.0732V66.8438H66.9551V65.9209L68.3789 65.1914L69.0557 63.1084H70.3564V65.2705H73.1426V66.8438H70.3564V72.0469C70.3564 72.5391 70.4795 72.9053 70.7256 73.1455C70.9717 73.3857 71.2969 73.5059 71.7012 73.5059ZM73.7314 65.2705H75.9814L77.9766 70.8252C78.0645 71.0771 78.1436 71.3262 78.2139 71.5723C78.29 71.8125 78.3545 72.0498 78.4072 72.2842C78.4658 72.5186 78.5127 72.7529 78.5479 72.9873H78.6006C78.6592 72.6826 78.7412 72.3428 78.8467 71.9678C78.958 71.5869 79.0811 71.2061 79.2158 70.8252L81.1318 65.2705H83.3555L79.1807 76.3359C78.9404 76.9688 78.6445 77.5078 78.293 77.9531C77.9473 78.4043 77.5371 78.7441 77.0625 78.9727C76.5879 79.207 76.0459 79.3242 75.4365 79.3242C75.1436 79.3242 74.8887 79.3066 74.6719 79.2715C74.4551 79.2422 74.2705 79.21 74.1182 79.1748V77.5225C74.2412 77.5518 74.3965 77.5781 74.584 77.6016C74.7715 77.625 74.9648 77.6367 75.1641 77.6367C75.5332 77.6367 75.8525 77.5635 76.1221 77.417C76.3916 77.2705 76.6201 77.0625 76.8076 76.793C76.9951 76.5293 77.1504 76.2275 77.2734 75.8877L77.6162 74.9736L73.7314 65.2705ZM86.9062 75H84.832V61.3242H86.9062V75ZM93.7354 65.0859C94.6025 65.0859 95.3467 65.2646 95.9678 65.6221C96.5889 65.9795 97.0664 66.4863 97.4004 67.1426C97.7344 67.7988 97.9014 68.584 97.9014 69.498V70.6055H91.4062C91.4297 71.5488 91.6816 72.2754 92.1621 72.7852C92.6484 73.2949 93.3281 73.5498 94.2012 73.5498C94.8223 73.5498 95.3789 73.4912 95.8711 73.374C96.3691 73.251 96.8818 73.0723 97.4092 72.8379V74.5166C96.9229 74.7451 96.4277 74.9121 95.9238 75.0176C95.4199 75.123 94.8164 75.1758 94.1133 75.1758C93.1582 75.1758 92.3174 74.9912 91.5908 74.6221C90.8701 74.2471 90.3047 73.6904 89.8945 72.9521C89.4902 72.2139 89.2881 71.2969 89.2881 70.2012C89.2881 69.1113 89.4727 68.1855 89.8418 67.4238C90.2109 66.6621 90.7295 66.082 91.3975 65.6836C92.0654 65.2852 92.8447 65.0859 93.7354 65.0859ZM93.7354 66.6416C93.085 66.6416 92.5576 66.8525 92.1533 67.2744C91.7549 67.6963 91.5205 68.3145 91.4502 69.1289H95.8799C95.874 68.6426 95.792 68.2119 95.6338 67.8369C95.4814 67.4619 95.2471 67.1689 94.9307 66.958C94.6201 66.7471 94.2217 66.6416 93.7354 66.6416ZM106.77 72.2227C106.77 72.8613 106.614 73.4004 106.304 73.8398C105.993 74.2793 105.539 74.6133 104.941 74.8418C104.35 75.0645 103.623 75.1758 102.762 75.1758C102.082 75.1758 101.496 75.126 101.004 75.0264C100.518 74.9326 100.058 74.7861 99.624 74.5869V72.8027C100.087 73.0195 100.605 73.207 101.18 73.3652C101.76 73.5234 102.308 73.6025 102.823 73.6025C103.503 73.6025 103.992 73.4971 104.291 73.2861C104.59 73.0693 104.739 72.7822 104.739 72.4248C104.739 72.2139 104.678 72.0264 104.555 71.8623C104.438 71.6924 104.215 71.5195 103.887 71.3438C103.564 71.1621 103.09 70.9453 102.463 70.6934C101.848 70.4473 101.329 70.2012 100.907 69.9551C100.485 69.709 100.166 69.4131 99.9492 69.0674C99.7324 68.7158 99.624 68.2676 99.624 67.7227C99.624 66.8613 99.9639 66.208 100.644 65.7627C101.329 65.3115 102.234 65.0859 103.359 65.0859C103.957 65.0859 104.52 65.1475 105.047 65.2705C105.58 65.3877 106.102 65.5605 106.611 65.7891L105.961 67.3447C105.521 67.1514 105.079 66.9932 104.634 66.8701C104.194 66.7412 103.746 66.6768 103.289 66.6768C102.756 66.6768 102.349 66.7588 102.067 66.9229C101.792 67.0869 101.654 67.3213 101.654 67.626C101.654 67.8545 101.722 68.0479 101.856 68.2061C101.991 68.3643 102.223 68.5225 102.551 68.6807C102.885 68.8389 103.348 69.0352 103.939 69.2695C104.52 69.4922 105.021 69.7266 105.442 69.9727C105.87 70.2129 106.198 70.5088 106.427 70.8604C106.655 71.2119 106.77 71.666 106.77 72.2227Z" fill="#425A60"/>
</svg>
