<svg width="93" height="64" viewBox="0 0 93 64" fill="none" xmlns="http://www.w3.org/2000/svg">
    <path d="M9.36621 57.7411H2.08887V44.8915H9.36621V46.6669H4.19824V50.1562H9.04102V51.9228H4.19824V55.957H9.36621V57.7411ZM10.4648 48.0117H12.7148L14.71 53.5663C14.7979 53.8183 14.877 54.0673 14.9473 54.3134C15.0234 54.5536 15.0879 54.791 15.1406 55.0253C15.1992 55.2597 15.2461 55.4941 15.2812 55.7285H15.334C15.3926 55.4238 15.4746 55.0839 15.5801 54.7089C15.6914 54.3281 15.8145 53.9472 15.9492 53.5663L17.8652 48.0117H20.0889L15.9141 59.0771C15.6738 59.7099 15.3779 60.249 15.0264 60.6943C14.6807 61.1454 14.2705 61.4853 13.7959 61.7138C13.3213 61.9482 12.7793 62.0654 12.1699 62.0654C11.877 62.0654 11.6221 62.0478 11.4053 62.0126C11.1885 61.9833 11.0039 61.9511 10.8516 61.916V60.2636C10.9746 60.2929 11.1299 60.3193 11.3174 60.3427C11.5049 60.3661 11.6982 60.3779 11.8975 60.3779C12.2666 60.3779 12.5859 60.3046 12.8555 60.1581C13.125 60.0117 13.3535 59.8036 13.541 59.5341C13.7285 59.2704 13.8838 58.9687 14.0068 58.6288L14.3496 57.7148L10.4648 48.0117ZM25.4414 47.8271C26.3086 47.8271 27.0527 48.0058 27.6738 48.3632C28.2949 48.7206 28.7725 49.2275 29.1064 49.8837C29.4404 50.54 29.6074 51.3251 29.6074 52.2392V53.3466H23.1123C23.1357 54.29 23.3877 55.0165 23.8682 55.5263C24.3545 56.0361 25.0342 56.291 25.9072 56.291C26.5283 56.291 27.085 56.2324 27.5771 56.1152C28.0752 55.9921 28.5879 55.8134 29.1152 55.579V57.2578C28.6289 57.4863 28.1338 57.6533 27.6299 57.7587C27.126 57.8642 26.5225 57.9169 25.8193 57.9169C24.8643 57.9169 24.0234 57.7324 23.2969 57.3632C22.5762 56.9882 22.0107 56.4316 21.6006 55.6933C21.1963 54.955 20.9941 54.038 20.9941 52.9423C20.9941 51.8525 21.1787 50.9267 21.5479 50.165C21.917 49.4033 22.4355 48.8232 23.1035 48.4247C23.7715 48.0263 24.5508 47.8271 25.4414 47.8271ZM25.4414 49.3828C24.791 49.3828 24.2637 49.5937 23.8594 50.0156C23.4609 50.4374 23.2266 51.0556 23.1562 51.8701H27.5859C27.5801 51.3837 27.498 50.9531 27.3398 50.5781C27.1875 50.2031 26.9531 49.9101 26.6367 49.6992C26.3262 49.4882 25.9277 49.3828 25.4414 49.3828ZM34.7139 62.0654C33.3955 62.0654 32.3848 61.8281 31.6816 61.3535C30.9785 60.8788 30.627 60.2138 30.627 59.3583C30.627 58.7607 30.8145 58.2538 31.1895 57.8378C31.5645 57.4277 32.1006 57.1435 32.7979 56.9853C32.5342 56.8681 32.3057 56.6865 32.1123 56.4404C31.9248 56.1884 31.8311 55.9101 31.8311 55.6054C31.8311 55.2421 31.9336 54.9316 32.1387 54.6738C32.3438 54.416 32.6514 54.1669 33.0615 53.9267C32.5518 53.7099 32.1416 53.3583 31.8311 52.872C31.5264 52.3798 31.374 51.8027 31.374 51.1406C31.374 50.4374 31.5234 49.8398 31.8223 49.3476C32.1211 48.8495 32.5576 48.4716 33.1318 48.2138C33.7061 47.9501 34.4004 47.8183 35.2148 47.8183C35.3906 47.8183 35.5811 47.83 35.7861 47.8535C35.9971 47.871 36.1904 47.8945 36.3662 47.9238C36.5479 47.9472 36.6855 47.9736 36.7793 48.0029H40.1455V49.1542L38.4932 49.4619C38.6514 49.6845 38.7773 49.9394 38.8711 50.2265C38.9648 50.5078 39.0117 50.8154 39.0117 51.1494C39.0117 52.1572 38.6631 52.9511 37.9658 53.5312C37.2744 54.1054 36.3193 54.3925 35.1006 54.3925C34.8076 54.3808 34.5234 54.3574 34.248 54.3222C34.0371 54.4511 33.876 54.5947 33.7646 54.7529C33.6533 54.9052 33.5977 55.0781 33.5977 55.2714C33.5977 55.4296 33.6533 55.5585 33.7646 55.6581C33.876 55.7519 34.04 55.8222 34.2568 55.8691C34.4795 55.916 34.749 55.9394 35.0654 55.9394H36.7441C37.8105 55.9394 38.625 56.165 39.1875 56.6161C39.75 57.0673 40.0312 57.7294 40.0312 58.6025C40.0312 59.7099 39.5742 60.5624 38.6602 61.1601C37.7461 61.7636 36.4307 62.0654 34.7139 62.0654ZM34.793 60.6152C35.5137 60.6152 36.1201 60.5449 36.6123 60.4042C37.1045 60.2636 37.4766 60.0615 37.7285 59.7978C37.9805 59.54 38.1064 59.2324 38.1064 58.8749C38.1064 58.5585 38.0273 58.3154 37.8691 58.1454C37.7109 57.9755 37.4736 57.8583 37.1572 57.7939C36.8408 57.7294 36.4482 57.6972 35.9795 57.6972H34.4502C34.0693 57.6972 33.7324 57.7558 33.4395 57.873C33.1465 57.996 32.918 58.1718 32.7539 58.4003C32.5957 58.6288 32.5166 58.9042 32.5166 59.2265C32.5166 59.6718 32.7129 60.0146 33.1055 60.2548C33.5039 60.4951 34.0664 60.6152 34.793 60.6152ZM35.1973 53.039C35.8008 53.039 36.249 52.8749 36.542 52.5468C36.835 52.2128 36.9814 51.7441 36.9814 51.1406C36.9814 50.4843 36.8291 49.9921 36.5244 49.664C36.2256 49.3359 35.7803 49.1718 35.1885 49.1718C34.6084 49.1718 34.166 49.3388 33.8613 49.6728C33.5625 50.0068 33.4131 50.5019 33.4131 51.1581C33.4131 51.7499 33.5625 52.2128 33.8613 52.5468C34.166 52.8749 34.6113 53.039 35.1973 53.039ZM43.9951 57.7411H41.9209V44.0654H43.9951V57.7411ZM50.7627 47.8271C51.9932 47.8271 52.9219 48.0995 53.5488 48.6445C54.1816 49.1894 54.498 50.039 54.498 51.1933V57.7411H53.0303L52.6348 56.3613H52.5645C52.2891 56.7128 52.0049 57.0029 51.7119 57.2314C51.4189 57.4599 51.0791 57.6298 50.6924 57.7411C50.3115 57.8583 49.8457 57.9169 49.2949 57.9169C48.7148 57.9169 48.1963 57.8115 47.7393 57.6005C47.2822 57.3837 46.9219 57.0556 46.6582 56.6161C46.3945 56.1767 46.2627 55.6201 46.2627 54.9462C46.2627 53.9443 46.6348 53.1913 47.3789 52.6874C48.1289 52.1835 49.2598 51.9052 50.7715 51.8525L52.459 51.791V51.2812C52.459 50.6074 52.3008 50.1269 51.9844 49.8398C51.6738 49.5527 51.2344 49.4091 50.666 49.4091C50.1797 49.4091 49.708 49.4794 49.251 49.6201C48.7939 49.7607 48.3486 49.9335 47.915 50.1386L47.2471 48.6796C47.7217 48.4277 48.2607 48.2226 48.8643 48.0644C49.4736 47.9062 50.1064 47.8271 50.7627 47.8271ZM52.4502 53.0917L51.1934 53.1357C50.1621 53.1708 49.4385 53.3466 49.0225 53.663C48.6064 53.9794 48.3984 54.413 48.3984 54.9638C48.3984 55.4443 48.542 55.7958 48.8291 56.0185C49.1162 56.2353 49.4941 56.3437 49.9629 56.3437C50.6777 56.3437 51.2695 56.1415 51.7383 55.7372C52.2129 55.3271 52.4502 54.7265 52.4502 53.9355V53.0917ZM63.9287 54.9638C63.9287 55.6025 63.7734 56.1415 63.4629 56.581C63.1523 57.0204 62.6982 57.3544 62.1006 57.5829C61.5088 57.8056 60.7822 57.9169 59.9209 57.9169C59.2412 57.9169 58.6553 57.8671 58.1631 57.7675C57.6768 57.6738 57.2168 57.5273 56.7832 57.3281V55.5439C57.2461 55.7607 57.7646 55.9482 58.3389 56.1064C58.9189 56.2646 59.4668 56.3437 59.9824 56.3437C60.6621 56.3437 61.1514 56.2382 61.4502 56.0273C61.749 55.8105 61.8984 55.5234 61.8984 55.166C61.8984 54.955 61.8369 54.7675 61.7139 54.6035C61.5967 54.4335 61.374 54.2607 61.0459 54.0849C60.7236 53.9033 60.249 53.6865 59.6221 53.4345C59.0068 53.1884 58.4883 52.9423 58.0664 52.6962C57.6445 52.4501 57.3252 52.1542 57.1084 51.8085C56.8916 51.457 56.7832 51.0087 56.7832 50.4638C56.7832 49.6025 57.123 48.9492 57.8027 48.5038C58.4883 48.0527 59.3936 47.8271 60.5186 47.8271C61.1162 47.8271 61.6787 47.8886 62.2061 48.0117C62.7393 48.1288 63.2607 48.3017 63.7705 48.5302L63.1201 50.0859C62.6807 49.8925 62.2383 49.7343 61.793 49.6113C61.3535 49.4824 60.9053 49.4179 60.4482 49.4179C59.915 49.4179 59.5078 49.4999 59.2266 49.664C58.9512 49.8281 58.8135 50.0624 58.8135 50.3671C58.8135 50.5956 58.8809 50.789 59.0156 50.9472C59.1504 51.1054 59.3818 51.2636 59.71 51.4218C60.0439 51.58 60.5068 51.7763 61.0986 52.0107C61.6787 52.2333 62.1797 52.4677 62.6016 52.7138C63.0293 52.954 63.3574 53.2499 63.5859 53.6015C63.8145 53.9531 63.9287 54.4072 63.9287 54.9638ZM72.7002 54.9638C72.7002 55.6025 72.5449 56.1415 72.2344 56.581C71.9238 57.0204 71.4697 57.3544 70.8721 57.5829C70.2803 57.8056 69.5537 57.9169 68.6924 57.9169C68.0127 57.9169 67.4268 57.8671 66.9346 57.7675C66.4482 57.6738 65.9883 57.5273 65.5547 57.3281V55.5439C66.0176 55.7607 66.5361 55.9482 67.1104 56.1064C67.6904 56.2646 68.2383 56.3437 68.7539 56.3437C69.4336 56.3437 69.9229 56.2382 70.2217 56.0273C70.5205 55.8105 70.6699 55.5234 70.6699 55.166C70.6699 54.955 70.6084 54.7675 70.4854 54.6035C70.3682 54.4335 70.1455 54.2607 69.8174 54.0849C69.4951 53.9033 69.0205 53.6865 68.3936 53.4345C67.7783 53.1884 67.2598 52.9423 66.8379 52.6962C66.416 52.4501 66.0967 52.1542 65.8799 51.8085C65.6631 51.457 65.5547 51.0087 65.5547 50.4638C65.5547 49.6025 65.8945 48.9492 66.5742 48.5038C67.2598 48.0527 68.165 47.8271 69.29 47.8271C69.8877 47.8271 70.4502 47.8886 70.9775 48.0117C71.5107 48.1288 72.0322 48.3017 72.542 48.5302L71.8916 50.0859C71.4521 49.8925 71.0098 49.7343 70.5645 49.6113C70.125 49.4824 69.6768 49.4179 69.2197 49.4179C68.6865 49.4179 68.2793 49.4999 67.998 49.664C67.7227 49.8281 67.585 50.0624 67.585 50.3671C67.585 50.5956 67.6523 50.789 67.7871 50.9472C67.9219 51.1054 68.1533 51.2636 68.4814 51.4218C68.8154 51.58 69.2783 51.7763 69.8701 52.0107C70.4502 52.2333 70.9512 52.4677 71.373 52.7138C71.8008 52.954 72.1289 53.2499 72.3574 53.6015C72.5859 53.9531 72.7002 54.4072 72.7002 54.9638ZM78.8086 47.8271C79.6758 47.8271 80.4199 48.0058 81.041 48.3632C81.6621 48.7206 82.1396 49.2275 82.4736 49.8837C82.8076 50.54 82.9746 51.3251 82.9746 52.2392V53.3466H76.4795C76.5029 54.29 76.7549 55.0165 77.2354 55.5263C77.7217 56.0361 78.4014 56.291 79.2744 56.291C79.8955 56.291 80.4521 56.2324 80.9443 56.1152C81.4424 55.9921 81.9551 55.8134 82.4824 55.579V57.2578C81.9961 57.4863 81.501 57.6533 80.9971 57.7587C80.4932 57.8642 79.8896 57.9169 79.1865 57.9169C78.2314 57.9169 77.3906 57.7324 76.6641 57.3632C75.9434 56.9882 75.3779 56.4316 74.9678 55.6933C74.5635 54.955 74.3613 54.038 74.3613 52.9423C74.3613 51.8525 74.5459 50.9267 74.915 50.165C75.2842 49.4033 75.8027 48.8232 76.4707 48.4247C77.1387 48.0263 77.918 47.8271 78.8086 47.8271ZM78.8086 49.3828C78.1582 49.3828 77.6309 49.5937 77.2266 50.0156C76.8281 50.4374 76.5938 51.0556 76.5234 51.8701H80.9531C80.9473 51.3837 80.8652 50.9531 80.707 50.5781C80.5547 50.2031 80.3203 49.9101 80.0039 49.6992C79.6934 49.4882 79.2949 49.3828 78.8086 49.3828ZM91.8428 54.9638C91.8428 55.6025 91.6875 56.1415 91.377 56.581C91.0664 57.0204 90.6123 57.3544 90.0146 57.5829C89.4229 57.8056 88.6963 57.9169 87.835 57.9169C87.1553 57.9169 86.5693 57.8671 86.0771 57.7675C85.5908 57.6738 85.1309 57.5273 84.6973 57.3281V55.5439C85.1602 55.7607 85.6787 55.9482 86.2529 56.1064C86.833 56.2646 87.3809 56.3437 87.8965 56.3437C88.5762 56.3437 89.0654 56.2382 89.3643 56.0273C89.6631 55.8105 89.8125 55.5234 89.8125 55.166C89.8125 54.955 89.751 54.7675 89.6279 54.6035C89.5107 54.4335 89.2881 54.2607 88.96 54.0849C88.6377 53.9033 88.1631 53.6865 87.5361 53.4345C86.9209 53.1884 86.4023 52.9423 85.9805 52.6962C85.5586 52.4501 85.2393 52.1542 85.0225 51.8085C84.8057 51.457 84.6973 51.0087 84.6973 50.4638C84.6973 49.6025 85.0371 48.9492 85.7168 48.5038C86.4023 48.0527 87.3076 47.8271 88.4326 47.8271C89.0303 47.8271 89.5928 47.8886 90.1201 48.0117C90.6533 48.1288 91.1748 48.3017 91.6846 48.5302L91.0342 50.0859C90.5947 49.8925 90.1523 49.7343 89.707 49.6113C89.2676 49.4824 88.8193 49.4179 88.3623 49.4179C87.8291 49.4179 87.4219 49.4999 87.1406 49.664C86.8652 49.8281 86.7275 50.0624 86.7275 50.3671C86.7275 50.5956 86.7949 50.789 86.9297 50.9472C87.0645 51.1054 87.2959 51.2636 87.624 51.4218C87.958 51.58 88.4209 51.7763 89.0127 52.0107C89.5928 52.2333 90.0938 52.4677 90.5156 52.7138C90.9434 52.954 91.2715 53.2499 91.5 53.6015C91.7285 53.9531 91.8428 54.4072 91.8428 54.9638Z" fill="#425A60"/>
    <path fill-rule="evenodd" clip-rule="evenodd" d="M72.7632 13.853C71.6067 16.5518 70.7201 17.5543 68.1368 18.4793C65.5536 19.405 59.115 19.4822 56.5318 17.9398C53.9485 16.3975 51.5968 11.3469 52.0207 7.95392C52.4449 4.56126 58.1513 3.44318 58.1513 3.44318C67.0959 2.13234 71.4139 3.75185 72.8019 4.90834C74.1899 6.06518 73.92 11.1542 72.7632 13.853ZM37.0818 17.9395C34.4985 19.4818 28.06 19.4047 25.4767 18.4793C22.8938 17.554 22.0069 16.5515 20.8504 13.8527C19.6939 11.1538 19.424 6.0645 20.812 4.908C22.2 3.75151 26.5183 2.132 35.4626 3.44318C35.4626 3.44318 41.1689 4.56126 41.5932 7.95392C42.0171 11.3469 39.665 16.3975 37.0818 17.9395ZM78.2258 2.70821C69.5507 -0.750056 60.3687 0.800777 53.3397 2.53756C50.752 3.177 48.0698 3.33643 48.043 3.33813L46.8097 3.35037L45.5855 3.33847C45.544 3.33643 42.8615 3.17666 40.2742 2.53722C26.8916 -0.769093 19.9448 0.891542 15.3878 2.70753C15.1152 2.81632 14.9391 3.07603 14.9391 3.36941L14.9387 6.28478C14.9387 6.49623 15.0319 6.69544 15.194 6.83142C15.7668 7.31006 16.5052 7.97941 16.7683 8.44684C16.9138 8.7052 17.2956 9.66453 17.9071 11.2086C18.6985 13.2081 19.7826 15.946 20.2147 16.6416C20.6134 17.2844 22.8544 20.504 27.8108 20.7627C32.314 20.998 36.906 21.0293 39.235 18.6605C41.5619 16.2945 44.1812 9.92662 44.2074 9.86271C44.4069 9.30622 45.2068 8.25613 46.8069 8.34316C46.8685 8.33976 46.9297 8.33806 46.9892 8.33806C48.4621 8.33806 49.2148 9.32832 49.4109 9.87529C49.4323 9.92696 52.0516 16.2945 54.3786 18.6609C56.7079 21.0293 61.3005 20.9987 65.8028 20.7631C70.7585 20.5044 72.9998 17.2848 73.3989 16.6423C73.8309 15.9467 74.9147 13.2085 75.7064 11.2092C76.3176 9.66521 76.6997 8.70554 76.8452 8.44752C77.1084 7.97975 77.8467 7.31074 78.4199 6.83176C78.5813 6.69612 78.6745 6.49691 78.6745 6.28512V3.36975C78.6745 3.07637 78.4984 2.81666 78.2258 2.70821Z" fill="#3A4850"/>
    <path d="M29.3348 9.36814C29.2685 9.30185 29.1607 9.30185 29.0944 9.36814L24.5052 13.9574C24.4389 14.0237 24.4389 14.1315 24.5052 14.1977C24.5385 14.2311 24.582 14.2477 24.6252 14.2477C24.6687 14.2477 24.7122 14.2311 24.7455 14.1977L29.3348 9.60848C29.4011 9.54219 29.4011 9.43443 29.3348 9.36814" stroke="#B0BDC5" stroke-width="0.55"/>
    <path d="M35.8934 6.9885L26.8848 15.9971C26.8185 16.0634 26.8185 16.1711 26.8848 16.2374C26.9181 16.2707 26.9616 16.2874 27.0051 16.2874C27.0483 16.2874 27.0918 16.2707 27.1251 16.2374L36.1337 7.22884C36.2 7.16255 36.2 7.05479 36.1337 6.9885C36.0674 6.92221 35.9597 6.92221 35.8934 6.9885" stroke="#B0BDC5" stroke-width="0.55"/>
    <path d="M62.3095 9.36814C62.2432 9.30185 62.1355 9.30185 62.0692 9.36814L57.4799 13.9574C57.4136 14.0237 57.4136 14.1315 57.4799 14.1977C57.5132 14.2311 57.5567 14.2477 57.5999 14.2477C57.6434 14.2477 57.6869 14.2311 57.7202 14.1977L62.3095 9.60848C62.3758 9.54219 62.3758 9.43443 62.3095 9.36814" stroke="#B0BDC5" stroke-width="0.55"/>
    <path d="M68.8681 6.9885L59.8595 15.9971C59.7932 16.0634 59.7932 16.1711 59.8595 16.2374C59.8928 16.2707 59.9364 16.2874 59.9799 16.2874C60.023 16.2874 60.0666 16.2707 60.0999 16.2374L69.1084 7.22884C69.1747 7.16255 69.1747 7.05479 69.1084 6.9885C69.0421 6.92221 68.9344 6.92221 68.8681 6.9885" stroke="#B0BDC5" stroke-width="0.55"/>
</svg>
