<svg width="95" height="64" viewBox="0 0 95 64" fill="none" xmlns="http://www.w3.org/2000/svg">
    <path fill-rule="evenodd" clip-rule="evenodd" d="M53.5 4.95005L51.967 7.19766V9.57728L52.7335 11.3505L53.5 13.702L54.5 15.4L56.6243 18.7253L61.8966 19.9894L69.0944 19.4022L72.1336 17.4942L74.7403 13.702C74.7403 13.702 75.5593 9.42363 75.5593 8.90559C75.5593 8.38755 74.7403 5.59162 74.7403 5.59162C74.7403 5.59162 73.4189 3.81272 72.7763 3.81272C72.1336 3.81272 67.2484 3.21393 66.3661 3.21393C65.4839 3.21393 59.153 3.21413 59.153 3.21413L56.2397 4.42475L53.5 4.95005Z" fill="url(#paint0_linear_1_16)"/>
    <path fill-rule="evenodd" clip-rule="evenodd" d="M21.5999 4.95005L20.067 7.19766V9.57728L20.8335 11.3505L21.5999 13.702V15.6799L24.7243 18.7253L29.9966 19.9894L37.1944 19.4022L39.8547 17.2995L41.9088 14.5066C41.9088 14.5066 43.4095 8.60024 43.4095 8.0822C43.4095 7.56416 41.9088 5.35342 41.9088 5.35342C41.9088 5.35342 40.4973 4.0426 39.8547 4.0426C39.212 4.0426 35.3483 3.21393 34.4661 3.21393C33.5839 3.21393 27.253 3.21413 27.253 3.21413L23.1825 3.21393L21.5999 4.95005Z" fill="url(#paint1_linear_1_16)"/>
    <path fill-rule="evenodd" clip-rule="evenodd" d="M73.7632 14.1118C72.6067 16.8107 71.7201 17.8132 69.1368 18.7382C66.5536 19.6638 60.115 19.741 57.5318 18.1987C54.9485 16.6563 52.5968 11.6058 53.0207 8.21277C53.4449 4.82011 59.1513 3.70203 59.1513 3.70203C68.0959 2.39119 72.4139 4.0107 73.8019 5.16719C75.1899 6.32403 74.92 11.413 73.7632 14.1118ZM38.0818 18.1983C35.4985 19.7407 29.06 19.6635 26.4767 18.7382C23.8938 17.8128 23.0069 16.8103 21.8504 14.1115C20.6939 11.4127 20.424 6.32335 21.812 5.16685C23.2 4.01036 27.5183 2.39085 36.4626 3.70203C36.4626 3.70203 42.1689 4.82011 42.5932 8.21277C43.0171 11.6058 40.665 16.6563 38.0818 18.1983ZM79.2258 2.96706C70.5507 -0.491206 61.3687 1.05963 54.3397 2.79641C51.752 3.43585 49.0698 3.59528 49.043 3.59698L47.8097 3.60922L46.5855 3.59732C46.544 3.59528 43.8615 3.43551 41.2742 2.79607C27.8916 -0.510243 20.9448 1.15039 16.3878 2.96638C16.1152 3.07517 15.9391 3.33488 15.9391 3.62826L15.9387 6.54363C15.9387 6.75508 16.0319 6.95429 16.194 7.09027C16.7668 7.56891 17.5052 8.23826 17.7683 8.70569C17.9138 8.96405 18.2956 9.92338 18.9071 11.4674C19.6985 13.467 20.7826 16.2049 21.2147 16.9004C21.6134 17.5433 23.8544 20.7629 28.8108 21.0216C33.314 21.2568 37.906 21.2881 40.235 18.9194C42.5619 16.5533 45.1812 10.1855 45.2074 10.1216C45.4069 9.56507 46.2068 8.51498 47.8069 8.60201C47.8685 8.59861 47.9297 8.59691 47.9892 8.59691C49.4621 8.59691 50.2148 9.58717 50.4109 10.1341C50.4323 10.1858 53.0516 16.5533 55.3786 18.9197C57.7079 21.2881 62.3005 21.2575 66.8028 21.0219C71.7585 20.7632 73.9998 17.5436 74.3989 16.9011C74.8309 16.2056 75.9147 13.4673 76.7064 11.4681C77.3176 9.92406 77.6997 8.96439 77.8452 8.70637C78.1084 8.2386 78.8467 7.56959 79.4199 7.09061C79.5813 6.95497 79.6745 6.75576 79.6745 6.54397V3.6286C79.6745 3.33522 79.4984 3.07551 79.2258 2.96706Z" fill="#3A4850"/>
    <path d="M30.3348 9.62699C30.2685 9.5607 30.1607 9.5607 30.0944 9.62699L25.5052 14.2163C25.4389 14.2825 25.4389 14.3903 25.5052 14.4566C25.5385 14.4899 25.582 14.5066 25.6252 14.5066C25.6687 14.5066 25.7122 14.4899 25.7455 14.4566L30.3348 9.86733C30.4011 9.80104 30.4011 9.69328 30.3348 9.62699" stroke="white" stroke-width="0.55"/>
    <path d="M36.8934 7.24735L27.8848 16.2559C27.8185 16.3222 27.8185 16.43 27.8848 16.4963C27.9181 16.5296 27.9616 16.5462 28.0051 16.5462C28.0483 16.5462 28.0918 16.5296 28.1251 16.4963L37.1337 7.48769C37.2 7.4214 37.2 7.31364 37.1337 7.24735C37.0674 7.18106 36.9597 7.18106 36.8934 7.24735" stroke="white" stroke-width="0.55"/>
    <path d="M63.3095 9.62699C63.2432 9.5607 63.1355 9.5607 63.0692 9.62699L58.4799 14.2163C58.4136 14.2825 58.4136 14.3903 58.4799 14.4566C58.5132 14.4899 58.5567 14.5066 58.5999 14.5066C58.6434 14.5066 58.6869 14.4899 58.7202 14.4566L63.3095 9.86733C63.3758 9.80104 63.3758 9.69328 63.3095 9.62699" stroke="white" stroke-width="0.55"/>
    <path d="M69.8681 7.24735L60.8595 16.2559C60.7932 16.3222 60.7932 16.43 60.8595 16.4963C60.8928 16.5296 60.9364 16.5462 60.9799 16.5462C61.023 16.5462 61.0666 16.5296 61.0999 16.4963L70.1084 7.48769C70.1747 7.4214 70.1747 7.31364 70.1084 7.24735C70.0421 7.18106 69.9344 7.18106 69.8681 7.24735" stroke="white" stroke-width="0.55"/>
    <path d="M9.14453 54.502C9.14453 55.2637 8.95703 55.9199 8.58203 56.4707C8.21289 57.0215 7.67969 57.4434 6.98242 57.7363C6.29102 58.0293 5.46484 58.1758 4.50391 58.1758C4.03516 58.1758 3.58691 58.1494 3.15918 58.0967C2.73145 58.0439 2.32715 57.9678 1.94629 57.8682C1.57129 57.7627 1.22852 57.6367 0.917969 57.4902V55.5039C1.43945 55.7324 2.02246 55.9404 2.66699 56.1279C3.31152 56.3096 3.96777 56.4004 4.63574 56.4004C5.18066 56.4004 5.63184 56.3301 5.98926 56.1895C6.35254 56.043 6.62207 55.8379 6.79785 55.5742C6.97363 55.3047 7.06152 54.9912 7.06152 54.6338C7.06152 54.2529 6.95898 53.9307 6.75391 53.667C6.54883 53.4033 6.23828 53.1631 5.82227 52.9463C5.41211 52.7236 4.89648 52.4863 4.27539 52.2344C3.85352 52.0645 3.44922 51.8711 3.0625 51.6543C2.68164 51.4375 2.3418 51.1826 2.04297 50.8896C1.74414 50.5967 1.50684 50.251 1.33105 49.8525C1.16113 49.4482 1.07617 48.9736 1.07617 48.4287C1.07617 47.7021 1.24902 47.0811 1.59473 46.5654C1.94629 46.0498 2.43848 45.6543 3.07129 45.3789C3.70996 45.1035 4.4541 44.9658 5.30371 44.9658C5.97754 44.9658 6.61035 45.0361 7.20215 45.1768C7.7998 45.3174 8.38574 45.5166 8.95996 45.7744L8.29199 47.4707C7.76465 47.2539 7.25195 47.0811 6.75391 46.9521C6.26172 46.8232 5.75781 46.7588 5.24219 46.7588C4.79688 46.7588 4.41895 46.8262 4.1084 46.9609C3.79785 47.0957 3.56055 47.2861 3.39648 47.5322C3.23828 47.7725 3.15918 48.0596 3.15918 48.3936C3.15918 48.7686 3.25 49.085 3.43164 49.3428C3.61914 49.5947 3.90625 49.8262 4.29297 50.0371C4.68555 50.248 5.18945 50.4824 5.80469 50.7402C6.51367 51.0332 7.11426 51.3408 7.60645 51.6631C8.10449 51.9854 8.48535 52.3721 8.74902 52.8232C9.0127 53.2686 9.14453 53.8281 9.14453 54.502ZM19.8936 48.2705V58H18.2676L17.9863 56.6904H17.8721C17.667 57.0244 17.4062 57.3027 17.0898 57.5254C16.7734 57.7422 16.4219 57.9033 16.0352 58.0088C15.6484 58.1201 15.2412 58.1758 14.8135 58.1758C14.0811 58.1758 13.4541 58.0527 12.9326 57.8066C12.417 57.5547 12.0215 57.168 11.7461 56.6465C11.4707 56.125 11.333 55.4512 11.333 54.625V48.2705H13.4072V54.2383C13.4072 54.9941 13.5596 55.5596 13.8643 55.9346C14.1748 56.3096 14.6553 56.4971 15.3057 56.4971C15.9326 56.4971 16.4307 56.3682 16.7998 56.1104C17.1689 55.8525 17.4297 55.4717 17.582 54.9678C17.7402 54.4639 17.8193 53.8457 17.8193 53.1133V48.2705H19.8936ZM27.9268 48.0859C29.0225 48.0859 29.875 48.3701 30.4844 48.9385C31.0996 49.501 31.4072 50.4062 31.4072 51.6543V58H29.3418V52.041C29.3418 51.2852 29.1865 50.7197 28.876 50.3447C28.5654 49.9639 28.085 49.7734 27.4346 49.7734C26.4912 49.7734 25.835 50.0635 25.4658 50.6436C25.1025 51.2236 24.9209 52.0645 24.9209 53.166V58H22.8555V48.2705H24.4639L24.7539 49.5889H24.8682C25.0791 49.249 25.3398 48.9707 25.6504 48.7539C25.9668 48.5312 26.3184 48.3643 26.7051 48.2529C27.0977 48.1416 27.5049 48.0859 27.9268 48.0859ZM37.0762 62.3242C35.7578 62.3242 34.7471 62.0869 34.0439 61.6123C33.3408 61.1377 32.9893 60.4727 32.9893 59.6172C32.9893 59.0195 33.1768 58.5127 33.5518 58.0967C33.9268 57.6865 34.4629 57.4023 35.1602 57.2441C34.8965 57.127 34.668 56.9453 34.4746 56.6992C34.2871 56.4473 34.1934 56.1689 34.1934 55.8643C34.1934 55.501 34.2959 55.1904 34.501 54.9326C34.7061 54.6748 35.0137 54.4258 35.4238 54.1855C34.9141 53.9688 34.5039 53.6172 34.1934 53.1309C33.8887 52.6387 33.7363 52.0615 33.7363 51.3994C33.7363 50.6963 33.8857 50.0986 34.1846 49.6064C34.4834 49.1084 34.9199 48.7305 35.4941 48.4727C36.0684 48.209 36.7627 48.0771 37.5771 48.0771C37.7529 48.0771 37.9434 48.0889 38.1484 48.1123C38.3594 48.1299 38.5527 48.1533 38.7285 48.1826C38.9102 48.2061 39.0479 48.2324 39.1416 48.2617H42.5078V49.4131L40.8555 49.7207C41.0137 49.9434 41.1396 50.1982 41.2334 50.4854C41.3271 50.7666 41.374 51.0742 41.374 51.4082C41.374 52.416 41.0254 53.21 40.3281 53.79C39.6367 54.3643 38.6816 54.6514 37.4629 54.6514C37.1699 54.6396 36.8857 54.6162 36.6104 54.5811C36.3994 54.71 36.2383 54.8535 36.127 55.0117C36.0156 55.1641 35.96 55.3369 35.96 55.5303C35.96 55.6885 36.0156 55.8174 36.127 55.917C36.2383 56.0107 36.4023 56.0811 36.6191 56.1279C36.8418 56.1748 37.1113 56.1982 37.4277 56.1982H39.1064C40.1729 56.1982 40.9873 56.4238 41.5498 56.875C42.1123 57.3262 42.3936 57.9883 42.3936 58.8613C42.3936 59.9688 41.9365 60.8213 41.0225 61.4189C40.1084 62.0225 38.793 62.3242 37.0762 62.3242ZM37.1553 60.874C37.876 60.874 38.4824 60.8037 38.9746 60.6631C39.4668 60.5225 39.8389 60.3203 40.0908 60.0566C40.3428 59.7988 40.4688 59.4912 40.4688 59.1338C40.4688 58.8174 40.3896 58.5742 40.2314 58.4043C40.0732 58.2344 39.8359 58.1172 39.5195 58.0527C39.2031 57.9883 38.8105 57.9561 38.3418 57.9561H36.8125C36.4316 57.9561 36.0947 58.0146 35.8018 58.1318C35.5088 58.2549 35.2803 58.4307 35.1162 58.6592C34.958 58.8877 34.8789 59.1631 34.8789 59.4854C34.8789 59.9307 35.0752 60.2734 35.4678 60.5137C35.8662 60.7539 36.4287 60.874 37.1553 60.874ZM37.5596 53.2979C38.1631 53.2979 38.6113 53.1338 38.9043 52.8057C39.1973 52.4717 39.3438 52.0029 39.3438 51.3994C39.3438 50.7432 39.1914 50.251 38.8867 49.9229C38.5879 49.5947 38.1426 49.4307 37.5508 49.4307C36.9707 49.4307 36.5283 49.5977 36.2236 49.9316C35.9248 50.2656 35.7754 50.7607 35.7754 51.417C35.7754 52.0088 35.9248 52.4717 36.2236 52.8057C36.5283 53.1338 36.9736 53.2979 37.5596 53.2979ZM46.3574 58H44.2832V44.3242H46.3574V58ZM53.125 48.0859C54.3555 48.0859 55.2842 48.3584 55.9111 48.9033C56.5439 49.4482 56.8604 50.2979 56.8604 51.4521V58H55.3926L54.9971 56.6201H54.9268C54.6514 56.9717 54.3672 57.2617 54.0742 57.4902C53.7812 57.7188 53.4414 57.8887 53.0547 58C52.6738 58.1172 52.208 58.1758 51.6572 58.1758C51.0771 58.1758 50.5586 58.0703 50.1016 57.8594C49.6445 57.6426 49.2842 57.3145 49.0205 56.875C48.7568 56.4355 48.625 55.8789 48.625 55.2051C48.625 54.2031 48.9971 53.4502 49.7412 52.9463C50.4912 52.4424 51.6221 52.1641 53.1338 52.1113L54.8213 52.0498V51.54C54.8213 50.8662 54.6631 50.3857 54.3467 50.0986C54.0361 49.8115 53.5967 49.668 53.0283 49.668C52.542 49.668 52.0703 49.7383 51.6133 49.8789C51.1562 50.0195 50.7109 50.1924 50.2773 50.3975L49.6094 48.9385C50.084 48.6865 50.623 48.4814 51.2266 48.3232C51.8359 48.165 52.4688 48.0859 53.125 48.0859ZM54.8125 53.3506L53.5557 53.3945C52.5244 53.4297 51.8008 53.6055 51.3848 53.9219C50.9688 54.2383 50.7607 54.6719 50.7607 55.2227C50.7607 55.7031 50.9043 56.0547 51.1914 56.2773C51.4785 56.4941 51.8564 56.6025 52.3252 56.6025C53.04 56.6025 53.6318 56.4004 54.1006 55.9961C54.5752 55.5859 54.8125 54.9854 54.8125 54.1943V53.3506ZM66.291 55.2227C66.291 55.8613 66.1357 56.4004 65.8252 56.8398C65.5146 57.2793 65.0605 57.6133 64.4629 57.8418C63.8711 58.0645 63.1445 58.1758 62.2832 58.1758C61.6035 58.1758 61.0176 58.126 60.5254 58.0264C60.0391 57.9326 59.5791 57.7861 59.1455 57.5869V55.8027C59.6084 56.0195 60.127 56.207 60.7012 56.3652C61.2812 56.5234 61.8291 56.6025 62.3447 56.6025C63.0244 56.6025 63.5137 56.4971 63.8125 56.2861C64.1113 56.0693 64.2607 55.7822 64.2607 55.4248C64.2607 55.2139 64.1992 55.0264 64.0762 54.8623C63.959 54.6924 63.7363 54.5195 63.4082 54.3438C63.0859 54.1621 62.6113 53.9453 61.9844 53.6934C61.3691 53.4473 60.8506 53.2012 60.4287 52.9551C60.0068 52.709 59.6875 52.4131 59.4707 52.0674C59.2539 51.7158 59.1455 51.2676 59.1455 50.7227C59.1455 49.8613 59.4854 49.208 60.165 48.7627C60.8506 48.3115 61.7559 48.0859 62.8809 48.0859C63.4785 48.0859 64.041 48.1475 64.5684 48.2705C65.1016 48.3877 65.623 48.5605 66.1328 48.7891L65.4824 50.3447C65.043 50.1514 64.6006 49.9932 64.1553 49.8701C63.7158 49.7412 63.2676 49.6768 62.8105 49.6768C62.2773 49.6768 61.8701 49.7588 61.5889 49.9229C61.3135 50.0869 61.1758 50.3213 61.1758 50.626C61.1758 50.8545 61.2432 51.0479 61.3779 51.2061C61.5127 51.3643 61.7441 51.5225 62.0723 51.6807C62.4062 51.8389 62.8691 52.0352 63.4609 52.2695C64.041 52.4922 64.542 52.7266 64.9639 52.9727C65.3916 53.2129 65.7197 53.5088 65.9482 53.8604C66.1768 54.2119 66.291 54.666 66.291 55.2227ZM75.0625 55.2227C75.0625 55.8613 74.9072 56.4004 74.5967 56.8398C74.2861 57.2793 73.832 57.6133 73.2344 57.8418C72.6426 58.0645 71.916 58.1758 71.0547 58.1758C70.375 58.1758 69.7891 58.126 69.2969 58.0264C68.8105 57.9326 68.3506 57.7861 67.917 57.5869V55.8027C68.3799 56.0195 68.8984 56.207 69.4727 56.3652C70.0527 56.5234 70.6006 56.6025 71.1162 56.6025C71.7959 56.6025 72.2852 56.4971 72.584 56.2861C72.8828 56.0693 73.0322 55.7822 73.0322 55.4248C73.0322 55.2139 72.9707 55.0264 72.8477 54.8623C72.7305 54.6924 72.5078 54.5195 72.1797 54.3438C71.8574 54.1621 71.3828 53.9453 70.7559 53.6934C70.1406 53.4473 69.6221 53.2012 69.2002 52.9551C68.7783 52.709 68.459 52.4131 68.2422 52.0674C68.0254 51.7158 67.917 51.2676 67.917 50.7227C67.917 49.8613 68.2568 49.208 68.9365 48.7627C69.6221 48.3115 70.5273 48.0859 71.6523 48.0859C72.25 48.0859 72.8125 48.1475 73.3398 48.2705C73.873 48.3877 74.3945 48.5605 74.9043 48.7891L74.2539 50.3447C73.8145 50.1514 73.3721 49.9932 72.9268 49.8701C72.4873 49.7412 72.0391 49.6768 71.582 49.6768C71.0488 49.6768 70.6416 49.7588 70.3604 49.9229C70.085 50.0869 69.9473 50.3213 69.9473 50.626C69.9473 50.8545 70.0146 51.0479 70.1494 51.2061C70.2842 51.3643 70.5156 51.5225 70.8438 51.6807C71.1777 51.8389 71.6406 52.0352 72.2324 52.2695C72.8125 52.4922 73.3135 52.7266 73.7354 52.9727C74.1631 53.2129 74.4912 53.5088 74.7197 53.8604C74.9482 54.2119 75.0625 54.666 75.0625 55.2227ZM81.1709 48.0859C82.0381 48.0859 82.7822 48.2646 83.4033 48.6221C84.0244 48.9795 84.502 49.4863 84.8359 50.1426C85.1699 50.7988 85.3369 51.584 85.3369 52.498V53.6055H78.8418C78.8652 54.5488 79.1172 55.2754 79.5977 55.7852C80.084 56.2949 80.7637 56.5498 81.6367 56.5498C82.2578 56.5498 82.8145 56.4912 83.3066 56.374C83.8047 56.251 84.3174 56.0723 84.8447 55.8379V57.5166C84.3584 57.7451 83.8633 57.9121 83.3594 58.0176C82.8555 58.123 82.252 58.1758 81.5488 58.1758C80.5938 58.1758 79.7529 57.9912 79.0264 57.6221C78.3057 57.2471 77.7402 56.6904 77.3301 55.9521C76.9258 55.2139 76.7236 54.2969 76.7236 53.2012C76.7236 52.1113 76.9082 51.1855 77.2773 50.4238C77.6465 49.6621 78.165 49.082 78.833 48.6836C79.501 48.2852 80.2803 48.0859 81.1709 48.0859ZM81.1709 49.6416C80.5205 49.6416 79.9932 49.8525 79.5889 50.2744C79.1904 50.6963 78.9561 51.3145 78.8857 52.1289H83.3154C83.3096 51.6426 83.2275 51.2119 83.0693 50.8369C82.917 50.4619 82.6826 50.1689 82.3662 49.958C82.0557 49.7471 81.6572 49.6416 81.1709 49.6416ZM94.2051 55.2227C94.2051 55.8613 94.0498 56.4004 93.7393 56.8398C93.4287 57.2793 92.9746 57.6133 92.377 57.8418C91.7852 58.0645 91.0586 58.1758 90.1973 58.1758C89.5176 58.1758 88.9316 58.126 88.4395 58.0264C87.9531 57.9326 87.4932 57.7861 87.0596 57.5869V55.8027C87.5225 56.0195 88.041 56.207 88.6152 56.3652C89.1953 56.5234 89.7432 56.6025 90.2588 56.6025C90.9385 56.6025 91.4277 56.4971 91.7266 56.2861C92.0254 56.0693 92.1748 55.7822 92.1748 55.4248C92.1748 55.2139 92.1133 55.0264 91.9902 54.8623C91.873 54.6924 91.6504 54.5195 91.3223 54.3438C91 54.1621 90.5254 53.9453 89.8984 53.6934C89.2832 53.4473 88.7646 53.2012 88.3428 52.9551C87.9209 52.709 87.6016 52.4131 87.3848 52.0674C87.168 51.7158 87.0596 51.2676 87.0596 50.7227C87.0596 49.8613 87.3994 49.208 88.0791 48.7627C88.7646 48.3115 89.6699 48.0859 90.7949 48.0859C91.3926 48.0859 91.9551 48.1475 92.4824 48.2705C93.0156 48.3877 93.5371 48.5605 94.0469 48.7891L93.3965 50.3447C92.957 50.1514 92.5146 49.9932 92.0693 49.8701C91.6299 49.7412 91.1816 49.6768 90.7246 49.6768C90.1914 49.6768 89.7842 49.7588 89.5029 49.9229C89.2275 50.0869 89.0898 50.3213 89.0898 50.626C89.0898 50.8545 89.1572 51.0479 89.292 51.2061C89.4268 51.3643 89.6582 51.5225 89.9863 51.6807C90.3203 51.8389 90.7832 52.0352 91.375 52.2695C91.9551 52.4922 92.4561 52.7266 92.8779 52.9727C93.3057 53.2129 93.6338 53.5088 93.8623 53.8604C94.0908 54.2119 94.2051 54.666 94.2051 55.2227Z" fill="#425A60"/>
    <defs>
        <linearGradient id="paint0_linear_1_16" x1="52.0147" y1="3.21393" x2="52.0147" y2="19.9216" gradientUnits="userSpaceOnUse">
            <stop stop-color="#89959C" stop-opacity="0.628551"/>
            <stop offset="1" stop-color="#3A4850" stop-opacity="0.821351"/>
        </linearGradient>
        <linearGradient id="paint1_linear_1_16" x1="20.1141" y1="3.21393" x2="20.1141" y2="19.9216" gradientUnits="userSpaceOnUse">
            <stop stop-color="#89959C" stop-opacity="0.628551"/>
            <stop offset="1" stop-color="#3A4850" stop-opacity="0.884943"/>
        </linearGradient>
    </defs>
</svg>
