<svg width="95" height="65" viewBox="0 0 95 65" fill="none" xmlns="http://www.w3.org/2000/svg">
    <path fill-rule="evenodd" clip-rule="evenodd" d="M16.9088 2.90049C23.4554 2.25882 40.3234 3.49191 41.9903 7.19762C43.5073 13.4287 40.2568 17.6123 37.4824 19.5107C34.708 21.4092 22.4702 22.8699 17.8818 14.0419C13.2934 5.21388 15.2329 6.65283 16.9088 2.90049Z" fill="url(#paint0_linear_1_59)"/>
    <path fill-rule="evenodd" clip-rule="evenodd" d="M76.4225 2.90049C69.8759 2.25882 53.0079 3.49191 51.341 7.19762C49.4971 14.1125 54.3176 18.4502 55.8489 19.5107C57.6795 21.0571 69.857 24.165 75.4495 14.0419C80.0379 5.21388 78.0984 6.65283 76.4225 2.90049Z" fill="url(#paint1_linear_1_59)"/>
    <path fill-rule="evenodd" clip-rule="evenodd" d="M76.2457 7.20117C76.2457 14.9776 70.151 20.5712 62.4728 20.5712C54.7945 20.5712 51.3379 15.725 51.1875 10.6351C51.0972 6.64244 57.2665 4.60035 63.8821 3.22881C71.1699 2.37541 76.3761 2.22303 76.2457 7.20117ZM41.9893 10.6351C41.8388 15.725 38.3795 20.5712 30.6951 20.5712C23.0108 20.5712 16.9112 14.9776 16.9112 7.20117C16.7807 2.22303 21.991 2.37541 29.2846 3.22881C35.9055 4.60035 42.0797 6.64244 41.9893 10.6351ZM80.1479 4.53936C80.3285 0.231728 70.7486 1.06481 70.7486 1.06481C61.4796 0.912426 50.7361 5.83983 50.7361 5.83983C49.2236 6.66467 46.7538 6.73019 46.5903 6.73368C46.4265 6.73019 43.9548 6.66467 42.4411 5.83983C42.4411 5.83983 31.689 0.912426 22.4127 1.06481C22.4127 1.06481 12.8252 0.231728 13.0059 4.53936C13.0059 4.53936 12.534 12.0981 20.0334 18.2549C20.0334 18.2549 24.8522 22.3389 30.8156 22.0952C30.8156 22.0952 37.5319 22.278 41.2364 17.4014C41.2364 17.4014 42.923 14.7869 44.1277 11.5528C44.1277 11.5528 44.3114 10.0498 46.5903 9.98526C48.8673 10.0498 49.0508 11.5528 49.0508 11.5528C50.2546 14.7869 51.9398 17.4014 51.9398 17.4014C55.6414 22.278 62.3523 22.0952 62.3523 22.0952C68.311 22.3389 73.126 18.2549 73.126 18.2549C80.6194 12.0981 80.1479 4.53936 80.1479 4.53936Z" fill="#3A4850"/>
    <path d="M51.1875 10.6351L50.9375 10.6408L50.9376 10.6425L51.1875 10.6351ZM63.8821 3.22881L63.8531 2.98051L63.8421 2.98179L63.8314 2.98402L63.8821 3.22881ZM16.9112 7.20117H17.1612L17.1611 7.19462L16.9112 7.20117ZM29.2846 3.22881L29.3353 2.98401L29.3246 2.98178L29.3137 2.98051L29.2846 3.22881ZM70.7486 1.06481L70.7445 1.31477L70.7574 1.31498L70.7702 1.31387L70.7486 1.06481ZM50.7361 5.83983L50.6319 5.61259L50.624 5.6162L50.6164 5.62034L50.7361 5.83983ZM46.5903 6.73368L46.5849 6.98385L46.5956 6.98362L46.5903 6.73368ZM42.4411 5.83983L42.5607 5.6203L42.5531 5.61616L42.5453 5.61256L42.4411 5.83983ZM22.4127 1.06481L22.3911 1.31387L22.4039 1.31498L22.4168 1.31477L22.4127 1.06481ZM13.0059 4.53936L13.2554 4.55494L13.2562 4.54192L13.2557 4.52889L13.0059 4.53936ZM20.0334 18.2549L20.195 18.0641L20.192 18.0616L20.0334 18.2549ZM30.8156 22.0952L30.8224 21.8452L30.8139 21.845L30.8054 21.8454L30.8156 22.0952ZM41.2364 17.4014L41.4354 17.5527L41.4412 17.545L41.4464 17.537L41.2364 17.4014ZM44.1277 11.5528L44.362 11.6401L44.3723 11.6125L44.3758 11.5832L44.1277 11.5528ZM46.5903 9.98526L46.5973 9.73536L46.5903 9.73516L46.5832 9.73536L46.5903 9.98526ZM49.0508 11.5528L48.8026 11.5831L48.8062 11.6124L48.8165 11.64L49.0508 11.5528ZM51.9398 17.4014L51.7297 17.5369L51.7349 17.545L51.7407 17.5526L51.9398 17.4014ZM62.3523 22.0952L62.3625 21.8454L62.354 21.845L62.3455 21.8452L62.3523 22.0952ZM73.126 18.2549L72.9673 18.0617L72.9643 18.0642L73.126 18.2549ZM75.9957 7.20117C75.9957 14.8287 70.024 20.3212 62.4728 20.3212V20.8212C70.2779 20.8212 76.4957 15.1265 76.4957 7.20117H75.9957ZM62.4728 20.3212C58.6886 20.3212 55.9725 19.1286 54.1842 17.3354C52.3933 15.5396 51.511 13.1196 51.4374 10.6277L50.9376 10.6425C51.0144 13.2405 51.9356 15.7886 53.8302 17.6884C55.7273 19.5908 58.5786 20.8212 62.4728 20.8212V20.3212ZM51.4374 10.6295C51.3958 8.78771 52.7925 7.34438 55.132 6.17257C57.4592 5.00696 60.6284 4.15869 63.9329 3.47361L63.8314 2.98402C60.5202 3.67047 57.2969 4.52901 54.9081 5.72551C52.5317 6.91579 50.8889 8.48985 50.9375 10.6408L51.4374 10.6295ZM63.9112 3.47712C67.564 3.04937 70.6445 2.80541 72.7926 3.27245C73.8607 3.50468 74.6694 3.90713 75.205 4.52419C75.7373 5.13749 76.0273 5.99466 75.9958 7.19462L76.4957 7.20772C76.5294 5.9186 76.2175 4.92802 75.5826 4.19646C74.9509 3.46866 74.027 3.02914 72.8989 2.78387C70.6546 2.29592 67.488 2.55485 63.8531 2.98051L63.9112 3.47712ZM41.7394 10.6277C41.6657 13.1196 40.7827 15.5395 38.9905 17.3353C37.2007 19.1286 34.4824 20.3212 30.6951 20.3212V20.8212C34.5923 20.8212 37.4458 19.5908 39.3444 17.6885C41.2404 15.7887 42.1624 13.2406 42.2392 10.6425L41.7394 10.6277ZM30.6951 20.3212C23.1376 20.3212 17.1612 14.8285 17.1612 7.20117H16.6612C16.6612 15.1267 22.884 20.8212 30.6951 20.8212V20.3212ZM17.1611 7.19462C17.1296 5.99471 17.4198 5.13757 17.9525 4.52427C18.4886 3.90718 19.2979 3.5047 20.3669 3.27246C22.5169 2.8054 25.5999 3.04938 29.2556 3.47712L29.3137 2.98051C25.6758 2.55485 22.5068 2.29593 20.2608 2.78386C19.1318 3.02912 18.2072 3.46861 17.5751 4.19638C16.9396 4.92794 16.6275 5.91856 16.6612 7.20772L17.1611 7.19462ZM29.2339 3.47362C32.541 4.1587 35.7128 5.00698 38.0418 6.1726C40.3833 7.34447 41.7811 8.78782 41.7394 10.6295L42.2393 10.6408C42.2879 8.48975 40.6438 6.91571 38.2656 5.72547C35.8749 4.529 32.6491 3.67046 29.3353 2.98401L29.2339 3.47362ZM80.3977 4.54983C80.4477 3.35684 79.8117 2.52564 78.8848 1.96524C77.9688 1.41145 76.7485 1.10585 75.5504 0.939108C74.3473 0.771668 73.1419 0.741084 72.2396 0.751963C71.7878 0.757409 71.4107 0.77327 71.1462 0.787799C71.0138 0.795066 70.9096 0.802003 70.8382 0.807148C70.8024 0.80972 70.7749 0.811845 70.7562 0.813339C70.7468 0.814086 70.7396 0.814675 70.7347 0.815084C70.7323 0.815288 70.7304 0.815448 70.7291 0.815559C70.7284 0.815615 70.7279 0.815658 70.7276 0.81569C70.7274 0.815705 70.7272 0.81572 70.7271 0.815727C70.727 0.815738 70.7269 0.815746 70.7486 1.06481C70.7702 1.31387 70.7702 1.31387 70.7702 1.31387C70.7703 1.31386 70.7703 1.31386 70.7705 1.31385C70.7707 1.31383 70.771 1.3138 70.7715 1.31375C70.7726 1.31367 70.7741 1.31353 70.7763 1.31335C70.7806 1.31299 70.7872 1.31245 70.7959 1.31176C70.8134 1.31036 70.8397 1.30833 70.8741 1.30586C70.9429 1.3009 71.0443 1.29415 71.1736 1.28705C71.4322 1.27284 71.8021 1.25727 72.2456 1.25193C73.1339 1.24122 74.3122 1.27159 75.4815 1.43433C76.6558 1.59777 77.7966 1.89159 78.6261 2.39312C79.4447 2.88804 79.9384 3.56807 79.8981 4.52889L80.3977 4.54983ZM70.7527 0.81484C66.0785 0.737997 61.0454 1.94091 57.1913 3.15676C55.262 3.76538 53.6235 4.37875 52.467 4.8401C51.8887 5.0708 51.4307 5.26357 51.1169 5.39882C50.96 5.46645 50.8391 5.51971 50.7573 5.55615C50.7164 5.57437 50.6853 5.58839 50.6642 5.5979C50.6537 5.60265 50.6457 5.60628 50.6403 5.60874C50.6376 5.60997 50.6356 5.61091 50.6342 5.61155C50.6335 5.61187 50.6329 5.61212 50.6325 5.61229C50.6323 5.61238 50.6322 5.61245 50.6321 5.6125C50.632 5.61255 50.6319 5.61259 50.7361 5.83983C50.8403 6.06707 50.8403 6.06707 50.8404 6.06705C50.8405 6.06701 50.8405 6.06697 50.8407 6.06691C50.841 6.06678 50.8414 6.06658 50.842 6.06631C50.8432 6.06576 50.8451 6.06491 50.8475 6.06377C50.8525 6.0615 50.8601 6.05806 50.8702 6.0535C50.8904 6.04437 50.9207 6.03073 50.9607 6.0129C51.0408 5.97724 51.1598 5.92478 51.3148 5.85798C51.6248 5.72436 52.0785 5.53337 52.6522 5.30451C53.7998 4.84673 55.4265 4.23777 57.3417 3.63359C61.1766 2.42383 66.1497 1.23923 70.7445 1.31477L70.7527 0.81484ZM50.6164 5.62034C49.9 6.01104 48.9401 6.22863 48.1214 6.34735C47.3084 6.46526 46.6611 6.48211 46.5849 6.48374L46.5956 6.98362C46.683 6.98176 47.3524 6.96411 48.1932 6.84217C49.0284 6.72105 50.0597 6.49345 50.8558 6.05931L50.6164 5.62034ZM46.5956 6.48374C46.5193 6.48211 45.8715 6.46526 45.0578 6.34735C44.2384 6.22862 43.2778 6.01103 42.5607 5.6203L42.3215 6.05935C43.1182 6.49347 44.1502 6.72106 44.9861 6.84218C45.8275 6.96411 46.4975 6.98176 46.5849 6.98362L46.5956 6.48374ZM42.4411 5.83983C42.5453 5.61256 42.5452 5.61252 42.5451 5.61246C42.545 5.61242 42.5448 5.61235 42.5446 5.61226C42.5442 5.61209 42.5437 5.61184 42.543 5.61152C42.5416 5.61088 42.5395 5.60994 42.5368 5.60871C42.5314 5.60625 42.5234 5.60262 42.5129 5.59787C42.4919 5.58836 42.4607 5.57434 42.4197 5.55612C42.3378 5.51968 42.2169 5.46642 42.0599 5.39879C41.7459 5.26354 41.2875 5.07077 40.7087 4.84007C39.5513 4.37872 37.9115 3.76536 35.9807 3.15674C32.1235 1.9409 27.0864 0.737998 22.4086 0.81484L22.4168 1.31477C27.0153 1.23923 31.9924 2.42384 35.8304 3.63361C37.7471 4.23779 39.3751 4.84676 40.5236 5.30453C41.0978 5.53339 41.5519 5.72439 41.8621 5.85801C42.0172 5.92481 42.1363 5.97727 42.2165 6.01293C42.2565 6.03076 42.2868 6.0444 42.3071 6.05353C42.3172 6.05809 42.3247 6.06153 42.3297 6.06381C42.3322 6.06494 42.3341 6.06579 42.3353 6.06634C42.3359 6.06661 42.3363 6.06682 42.3366 6.06694C42.3368 6.06701 42.3368 6.06704 42.3369 6.06708C42.337 6.0671 42.337 6.0671 42.4411 5.83983ZM22.4127 1.06481C22.4343 0.815745 22.4342 0.815737 22.4341 0.815726C22.434 0.815718 22.4339 0.815704 22.4337 0.815688C22.4333 0.815657 22.4328 0.815613 22.4322 0.815558C22.4308 0.815446 22.429 0.815287 22.4265 0.815083C22.4216 0.814674 22.4144 0.814085 22.4051 0.813338C22.3863 0.811844 22.3588 0.809719 22.323 0.807147C22.2515 0.802003 22.1472 0.795065 22.0148 0.787799C21.75 0.773269 21.3726 0.757409 20.9205 0.751963C20.0174 0.741084 18.8111 0.771667 17.6071 0.939104C16.4081 1.10585 15.1868 1.41143 14.2702 1.9652C13.3427 2.52555 12.7061 3.35675 12.7561 4.54984L13.2557 4.52889C13.2154 3.56816 13.7094 2.88813 14.5288 2.39316C15.359 1.89161 16.5007 1.59778 17.676 1.43434C18.8463 1.27159 20.0255 1.24122 20.9145 1.25193C21.3584 1.25727 21.7286 1.27285 21.9874 1.28705C22.1168 1.29415 22.2183 1.3009 22.2871 1.30586C22.3216 1.30833 22.3478 1.31036 22.3653 1.31176C22.3741 1.31246 22.3807 1.313 22.385 1.31336C22.3871 1.31353 22.3887 1.31367 22.3897 1.31376C22.3903 1.3138 22.3906 1.31383 22.3908 1.31385C22.3909 1.31386 22.391 1.31386 22.3911 1.31387C22.3911 1.31387 22.3911 1.31387 22.4127 1.06481ZM13.0059 4.53936C12.7564 4.52379 12.7564 4.52394 12.7564 4.52413C12.7564 4.52423 12.7563 4.52444 12.7563 4.52464C12.7563 4.52504 12.7563 4.52555 12.7562 4.52618C12.7562 4.52744 12.7561 4.52916 12.7559 4.53133C12.7557 4.53568 12.7554 4.54184 12.755 4.54979C12.7543 4.56569 12.7534 4.58872 12.7525 4.61861C12.7508 4.6784 12.7494 4.76565 12.7503 4.87817C12.7521 5.10319 12.7632 5.42939 12.8004 5.83918C12.8746 6.65862 13.0529 7.81327 13.4685 9.16195C14.3002 11.861 16.0818 15.3342 19.8747 18.4481L20.192 18.0616C16.4856 15.0188 14.7535 11.6342 13.9463 9.01471C13.5424 7.7041 13.3699 6.58427 13.2983 5.79405C13.2625 5.39901 13.252 5.08658 13.2503 4.87418C13.2494 4.76799 13.2508 4.68684 13.2523 4.6329C13.2531 4.60593 13.2539 4.58576 13.2545 4.57268C13.2548 4.56614 13.2551 4.56136 13.2552 4.5584C13.2553 4.55691 13.2554 4.55588 13.2554 4.5553C13.2554 4.55501 13.2554 4.55484 13.2554 4.55478C13.2554 4.55475 13.2554 4.55479 13.2554 4.55477C13.2554 4.55484 13.2554 4.55494 13.0059 4.53936ZM20.0334 18.2549C19.8717 18.4456 19.8718 18.4456 19.8719 18.4457C19.872 18.4458 19.8721 18.4459 19.8722 18.446C19.8724 18.4461 19.8727 18.4464 19.8731 18.4467C19.8738 18.4473 19.8749 18.4482 19.8762 18.4493C19.8789 18.4516 19.8827 18.4548 19.8877 18.4589C19.8977 18.4672 19.9122 18.4792 19.9313 18.4947C19.9695 18.5257 20.0256 18.5706 20.0989 18.6274C20.2454 18.741 20.4604 18.9022 20.7367 19.0944C21.2892 19.4787 22.0878 19.9879 23.075 20.4893C25.0467 21.4908 27.786 22.4692 30.8258 22.3449L30.8054 21.8454C27.8818 21.9649 25.23 21.0231 23.3014 20.0435C22.3385 19.5544 21.5597 19.0578 21.0223 18.6839C20.7536 18.4971 20.5456 18.3411 20.4053 18.2323C20.3351 18.1779 20.2819 18.1353 20.2466 18.1066C20.2289 18.0923 20.2157 18.0814 20.2071 18.0742C20.2028 18.0706 20.1996 18.068 20.1976 18.0663C20.1966 18.0654 20.1958 18.0648 20.1954 18.0645C20.1952 18.0643 20.1951 18.0642 20.195 18.0641C20.195 18.0641 20.195 18.0641 20.195 18.0641C20.195 18.0641 20.195 18.0641 20.0334 18.2549ZM30.8156 22.0952C30.8088 22.3451 30.8089 22.3451 30.8091 22.3451C30.8092 22.3451 30.8093 22.3451 30.8095 22.3451C30.8098 22.3451 30.8102 22.3451 30.8108 22.3451C30.8118 22.3451 30.8133 22.3452 30.8152 22.3452C30.8189 22.3453 30.8242 22.3454 30.8312 22.3455C30.845 22.3457 30.8651 22.3459 30.8912 22.346C30.9434 22.3462 31.0196 22.3457 31.1174 22.3434C31.3129 22.3388 31.5949 22.3266 31.9443 22.2966C32.6428 22.2366 33.6126 22.1051 34.7004 21.8188C36.8732 21.2469 39.5372 20.0514 41.4354 17.5527L41.0373 17.2502C39.231 19.628 36.6847 20.7794 34.5732 21.3352C33.5188 21.6128 32.5781 21.7403 31.9015 21.7984C31.5634 21.8275 31.2918 21.8391 31.1055 21.8436C31.0124 21.8458 30.9407 21.8462 30.8927 21.846C30.8687 21.8459 30.8506 21.8457 30.8388 21.8456C30.8329 21.8455 30.8286 21.8454 30.8258 21.8453C30.8245 21.8453 30.8235 21.8453 30.8229 21.8453C30.8226 21.8452 30.8224 21.8452 30.8224 21.8452C30.8223 21.8452 30.8223 21.8452 30.8223 21.8452C30.8224 21.8452 30.8224 21.8452 30.8156 22.0952ZM41.2364 17.4014C41.4464 17.537 41.4465 17.5369 41.4465 17.5369C41.4465 17.5369 41.4465 17.5368 41.4466 17.5367C41.4467 17.5366 41.4468 17.5365 41.4469 17.5363C41.4471 17.5359 41.4475 17.5354 41.4479 17.5347C41.4488 17.5333 41.4501 17.5312 41.4518 17.5286C41.4552 17.5233 41.4602 17.5154 41.4667 17.5052C41.4797 17.4847 41.4988 17.4545 41.5234 17.415C41.5726 17.336 41.644 17.2199 41.7332 17.0708C41.9118 16.7725 42.1621 16.3414 42.4501 15.8089C43.0259 14.7444 43.7543 13.2713 44.362 11.6401L43.8934 11.4656C43.2963 13.0684 42.5791 14.5196 42.0104 15.571C41.7262 16.0963 41.4795 16.521 41.3042 16.814C41.2165 16.9605 41.1467 17.074 41.099 17.1506C41.0751 17.1889 41.0568 17.218 41.0445 17.2374C41.0383 17.2471 41.0337 17.2543 41.0306 17.2591C41.0291 17.2615 41.028 17.2633 41.0273 17.2644C41.0269 17.265 41.0266 17.2654 41.0265 17.2656C41.0264 17.2658 41.0263 17.2659 41.0263 17.2659C41.0263 17.2659 41.0263 17.2659 41.0263 17.2659C41.0263 17.2659 41.0263 17.2659 41.2364 17.4014ZM44.1277 11.5528C44.3758 11.5832 44.3758 11.5833 44.3758 11.5835C44.3758 11.5836 44.3758 11.5837 44.3758 11.5838C44.3757 11.584 44.3757 11.5842 44.3757 11.5844C44.3756 11.5847 44.3756 11.5849 44.3756 11.585C44.3756 11.5853 44.3756 11.5852 44.3756 11.5848C44.3758 11.584 44.3761 11.5818 44.3767 11.5784C44.3778 11.5717 44.38 11.56 44.3837 11.5441C44.391 11.5123 44.4041 11.4639 44.4263 11.4042C44.4707 11.2848 44.5511 11.122 44.6938 10.9565C44.9727 10.6328 45.5184 10.2657 46.5973 10.2352L46.5832 9.73536C45.3832 9.76936 44.6977 10.1861 44.315 10.6301C44.1269 10.8483 44.0189 11.0654 43.9577 11.2298C43.9271 11.312 43.908 11.3815 43.8964 11.4321C43.8906 11.4575 43.8866 11.4782 43.8839 11.4934C43.8826 11.5011 43.8816 11.5074 43.8809 11.5123C43.8806 11.5147 43.8803 11.5168 43.88 11.5185C43.8799 11.5193 43.8798 11.5201 43.8797 11.5208C43.8797 11.5211 43.8797 11.5214 43.8796 11.5217C43.8796 11.5219 43.8796 11.5221 43.8796 11.5221C43.8795 11.5223 43.8795 11.5225 44.1277 11.5528ZM46.5832 10.2352C47.6611 10.2657 48.2063 10.6328 48.485 10.9564C48.6275 11.1219 48.7078 11.2847 48.7522 11.4041C48.7744 11.4638 48.7875 11.5122 48.7948 11.5441C48.7985 11.56 48.8006 11.5716 48.8018 11.5784C48.8024 11.5818 48.8027 11.5839 48.8028 11.5847C48.8029 11.5852 48.8029 11.5852 48.8029 11.585C48.8029 11.5848 48.8028 11.5846 48.8028 11.5843C48.8028 11.5842 48.8027 11.584 48.8027 11.5838C48.8027 11.5837 48.8027 11.5835 48.8027 11.5835C48.8027 11.5833 48.8026 11.5831 49.0508 11.5528C49.299 11.5225 49.2989 11.5224 49.2989 11.5222C49.2989 11.5221 49.2989 11.5219 49.2989 11.5217C49.2988 11.5215 49.2988 11.5212 49.2987 11.5208C49.2987 11.5201 49.2986 11.5194 49.2984 11.5185C49.2982 11.5168 49.2979 11.5147 49.2976 11.5123C49.2968 11.5074 49.2959 11.5011 49.2945 11.4935C49.2919 11.4782 49.2879 11.4575 49.2821 11.4322C49.2705 11.3816 49.2515 11.3121 49.2209 11.2298C49.1597 11.0654 49.0518 10.8484 48.8639 10.6301C48.4815 10.1861 47.7965 9.76937 46.5973 9.73536L46.5832 10.2352ZM48.8165 11.64C49.4237 13.2712 50.1515 14.7443 50.7268 15.8088C51.0146 16.3413 51.2647 16.7724 51.4431 17.0707C51.5323 17.2199 51.6036 17.3359 51.6528 17.4149C51.6774 17.4544 51.6965 17.4846 51.7094 17.5051C51.7159 17.5154 51.7209 17.5232 51.7243 17.5285C51.726 17.5312 51.7273 17.5332 51.7282 17.5346C51.7287 17.5353 51.729 17.5358 51.7293 17.5362C51.7294 17.5364 51.7295 17.5366 51.7296 17.5367C51.7296 17.5367 51.7296 17.5368 51.7296 17.5368C51.7297 17.5369 51.7297 17.5369 51.9398 17.4014C52.15 17.266 52.15 17.266 52.15 17.266C52.15 17.266 52.15 17.266 52.1499 17.266C52.1499 17.2659 52.1499 17.2658 52.1498 17.2657C52.1496 17.2655 52.1493 17.2651 52.149 17.2645C52.1483 17.2633 52.1471 17.2616 52.1456 17.2592C52.1425 17.2544 52.1379 17.2472 52.1318 17.2375C52.1195 17.2181 52.1011 17.189 52.0773 17.1507C52.0296 17.074 51.9598 16.9605 51.8723 16.8141C51.697 16.5211 51.4506 16.0964 51.1667 15.571C50.5984 14.5197 49.8817 13.0685 49.2851 11.4656L48.8165 11.64ZM51.7407 17.5526C53.6374 20.0514 56.2994 21.2468 58.4705 21.8188C59.5574 22.1051 60.5266 22.2366 61.2245 22.2966C61.5737 22.3266 61.8554 22.3388 62.0508 22.3434C62.1485 22.3457 62.2246 22.3462 62.2768 22.346C62.3029 22.3459 62.323 22.3457 62.3368 22.3455C62.3437 22.3454 62.3491 22.3453 62.3528 22.3452C62.3547 22.3452 62.3561 22.3451 62.3572 22.3451C62.3577 22.3451 62.3581 22.3451 62.3585 22.3451C62.3586 22.3451 62.3588 22.3451 62.3589 22.3451C62.359 22.3451 62.3591 22.3451 62.3523 22.0952C62.3455 21.8452 62.3456 21.8452 62.3456 21.8452C62.3456 21.8452 62.3456 21.8452 62.3456 21.8452C62.3455 21.8452 62.3453 21.8452 62.345 21.8453C62.3445 21.8453 62.3435 21.8453 62.3421 21.8453C62.3394 21.8454 62.335 21.8455 62.3291 21.8456C62.3173 21.8457 62.2993 21.8459 62.2753 21.846C62.2274 21.8462 62.1557 21.8458 62.0627 21.8436C61.8766 21.8391 61.6052 21.8275 61.2673 21.7984C60.5913 21.7403 59.6513 21.6128 58.5979 21.3353C56.4881 20.7795 53.9438 19.6281 52.139 17.2503L51.7407 17.5526ZM62.3421 22.3449C65.3796 22.4692 68.1168 21.4908 70.087 20.4893C71.0734 19.9878 71.8714 19.4787 72.4234 19.0944C72.6995 18.9021 72.9144 18.741 73.0607 18.6274C73.134 18.5706 73.1901 18.5256 73.2282 18.4946C73.2473 18.4791 73.2618 18.4671 73.2718 18.4589C73.2768 18.4547 73.2806 18.4515 73.2833 18.4493C73.2846 18.4482 73.2856 18.4473 73.2864 18.4467C73.2867 18.4463 73.287 18.4461 73.2873 18.4459C73.2874 18.4458 73.2875 18.4457 73.2876 18.4457C73.2877 18.4456 73.2877 18.4455 73.126 18.2549C72.9643 18.0642 72.9643 18.0642 72.9644 18.0641C72.9644 18.0642 72.9644 18.0642 72.9643 18.0642C72.9643 18.0642 72.9641 18.0644 72.9639 18.0645C72.9635 18.0649 72.9628 18.0655 72.9618 18.0663C72.9597 18.068 72.9566 18.0707 72.9523 18.0743C72.9436 18.0814 72.9304 18.0923 72.9128 18.1067C72.8775 18.1354 72.8243 18.178 72.7542 18.2324C72.614 18.3411 72.4061 18.4971 72.1377 18.684C71.6007 19.0578 70.8225 19.5545 69.8604 20.0436C67.9334 21.0231 65.2837 21.9649 62.3625 21.8454L62.3421 22.3449ZM73.2847 18.448C77.0747 15.3341 78.8549 11.8609 79.6859 9.1619C80.1012 7.81323 80.2793 6.6586 80.3535 5.83916C80.3906 5.42938 80.4017 5.10319 80.4035 4.87817C80.4044 4.76565 80.403 4.6784 80.4013 4.61862C80.4004 4.58872 80.3995 4.56569 80.3988 4.5498C80.3984 4.54185 80.3981 4.53569 80.3979 4.53135C80.3978 4.52917 80.3977 4.52745 80.3976 4.5262C80.3975 4.52557 80.3975 4.52505 80.3975 4.52465C80.3975 4.52445 80.3975 4.52424 80.3975 4.52414C80.3975 4.52395 80.3974 4.5238 80.1479 4.53936C79.8984 4.55493 79.8984 4.55483 79.8984 4.55476C79.8984 4.55478 79.8984 4.55473 79.8984 4.55477C79.8984 4.55483 79.8984 4.555 79.8984 4.55529C79.8985 4.55587 79.8985 4.5569 79.8986 4.55839C79.8988 4.56135 79.899 4.56613 79.8993 4.57267C79.8999 4.58575 79.9007 4.60592 79.9015 4.63289C79.903 4.68684 79.9044 4.76799 79.9036 4.87419C79.9019 5.08659 79.8913 5.39902 79.8555 5.79407C79.784 6.5843 79.6116 7.70414 79.2081 9.01476C78.4015 11.6343 76.6707 15.0189 72.9673 18.0617L73.2847 18.448Z" fill="#3A4850"/>
    <path d="M28.3348 9.62696C28.2685 9.56067 28.1607 9.56067 28.0944 9.62696L23.5052 14.2162C23.4389 14.2825 23.4389 14.3903 23.5052 14.4566C23.5385 14.4899 23.582 14.5065 23.6252 14.5065C23.6687 14.5065 23.7122 14.4899 23.7455 14.4566L28.3348 9.8673C28.4011 9.80101 28.4011 9.69325 28.3348 9.62696" stroke="#B0BDC5" stroke-width="0.55"/>
    <path d="M34.8934 7.24733L25.8848 16.2559C25.8185 16.3222 25.8185 16.43 25.8848 16.4962C25.9181 16.5296 25.9616 16.5462 26.0051 16.5462C26.0483 16.5462 26.0918 16.5296 26.1251 16.4962L35.1337 7.48768C35.2 7.42139 35.2 7.31362 35.1337 7.24733C35.0674 7.18104 34.9597 7.18104 34.8934 7.24733" stroke="#B0BDC5" stroke-width="0.55"/>
    <path d="M61.3095 9.62696C61.2432 9.56067 61.1355 9.56067 61.0692 9.62696L56.4799 14.2162C56.4136 14.2825 56.4136 14.3903 56.4799 14.4566C56.5132 14.4899 56.5567 14.5065 56.5999 14.5065C56.6434 14.5065 56.6869 14.4899 56.7202 14.4566L61.3095 9.8673C61.3758 9.80101 61.3758 9.69325 61.3095 9.62696" stroke="#B0BDC5" stroke-width="0.55"/>
    <path d="M67.8681 7.24733L58.8595 16.2559C58.7932 16.3222 58.7932 16.43 58.8595 16.4962C58.8928 16.5296 58.9364 16.5462 58.9799 16.5462C59.023 16.5462 59.0666 16.5296 59.0999 16.4962L68.1084 7.48768C68.1747 7.42139 68.1747 7.31362 68.1084 7.24733C68.0421 7.18104 67.9344 7.18104 67.8681 7.24733" stroke="#B0BDC5" stroke-width="0.55"/>
    <path d="M9.14453 55.5107C9.14453 56.6533 8.73145 57.5498 7.90527 58.2002C7.0791 58.8506 5.93945 59.1758 4.48633 59.1758C3.0332 59.1758 1.84375 58.9502 0.917969 58.499V56.5127C1.50391 56.7881 2.125 57.0049 2.78125 57.1631C3.44336 57.3213 4.05859 57.4004 4.62695 57.4004C5.45898 57.4004 6.07129 57.2422 6.46387 56.9258C6.8623 56.6094 7.06152 56.1846 7.06152 55.6514C7.06152 55.1709 6.87988 54.7637 6.5166 54.4297C6.15332 54.0957 5.40332 53.7002 4.2666 53.2432C3.09473 52.7686 2.26855 52.2266 1.78809 51.6172C1.30762 51.0078 1.06738 50.2754 1.06738 49.4199C1.06738 48.3477 1.44824 47.5039 2.20996 46.8887C2.97168 46.2734 3.99414 45.9658 5.27734 45.9658C6.50781 45.9658 7.73242 46.2354 8.95117 46.7744L8.2832 48.4883C7.14062 48.0078 6.12109 47.7676 5.22461 47.7676C4.54492 47.7676 4.0293 47.917 3.67773 48.2158C3.32617 48.5088 3.15039 48.8984 3.15039 49.3848C3.15039 49.7188 3.2207 50.0059 3.36133 50.2461C3.50195 50.4805 3.7334 50.7031 4.05566 50.9141C4.37793 51.125 4.95801 51.4033 5.7959 51.749C6.73926 52.1416 7.43066 52.5078 7.87012 52.8477C8.30957 53.1875 8.63184 53.5713 8.83691 53.999C9.04199 54.4268 9.14453 54.9307 9.14453 55.5107ZM18.2676 59L17.9775 57.7256H17.8721C17.585 58.1768 17.1748 58.5312 16.6416 58.7891C16.1143 59.0469 15.5107 59.1758 14.8311 59.1758C13.6533 59.1758 12.7744 58.8828 12.1943 58.2969C11.6143 57.7109 11.3242 56.8232 11.3242 55.6338V49.2793H13.4072V55.2734C13.4072 56.0176 13.5596 56.5771 13.8643 56.9521C14.1689 57.3213 14.6465 57.5059 15.2969 57.5059C16.1641 57.5059 16.7998 57.248 17.2041 56.7324C17.6143 56.2109 17.8193 55.3408 17.8193 54.1221V49.2793H19.8936V59H18.2676ZM31.3896 59H29.3154V53.0234C29.3154 52.2734 29.1631 51.7139 28.8584 51.3447C28.5596 50.9756 28.082 50.791 27.4258 50.791C26.5527 50.791 25.9141 51.0488 25.5098 51.5645C25.1055 52.0801 24.9033 52.9443 24.9033 54.1572V59H22.8379V49.2793H24.4551L24.7451 50.5537H24.8506C25.1436 50.0908 25.5596 49.7334 26.0986 49.4814C26.6377 49.2295 27.2354 49.1035 27.8916 49.1035C30.2236 49.1035 31.3896 50.29 31.3896 52.6631V59ZM42.4727 49.2793V50.4131L40.8115 50.7207C40.9639 50.9258 41.0898 51.1777 41.1895 51.4766C41.2891 51.7754 41.3389 52.0918 41.3389 52.4258C41.3389 53.4277 40.9932 54.2158 40.3018 54.79C39.6104 55.3643 38.6582 55.6514 37.4453 55.6514C37.1348 55.6514 36.8535 55.6279 36.6016 55.5811C36.1562 55.8564 35.9336 56.1787 35.9336 56.5479C35.9336 56.7705 36.0361 56.9375 36.2412 57.0488C36.4521 57.1602 36.8359 57.2158 37.3926 57.2158H39.0889C40.1611 57.2158 40.9756 57.4443 41.5322 57.9014C42.0889 58.3584 42.3672 59.0176 42.3672 59.8789C42.3672 60.9805 41.9131 61.8301 41.0049 62.4277C40.0967 63.0254 38.7842 63.3242 37.0674 63.3242C35.7432 63.3242 34.7324 63.0898 34.0352 62.6211C33.3379 62.1523 32.9893 61.4844 32.9893 60.6172C32.9893 60.0195 33.1768 59.5156 33.5518 59.1055C33.9326 58.7012 34.4629 58.4199 35.1426 58.2617C34.8672 58.1445 34.6387 57.957 34.457 57.6992C34.2812 57.4355 34.1934 57.1602 34.1934 56.873C34.1934 56.5098 34.2959 56.2021 34.501 55.9502C34.7061 55.6982 35.0107 55.4492 35.415 55.2031C34.9111 54.9863 34.501 54.6348 34.1846 54.1484C33.874 53.6562 33.7188 53.082 33.7188 52.4258C33.7188 51.3711 34.0498 50.5537 34.7119 49.9736C35.3799 49.3936 36.3291 49.1035 37.5596 49.1035C37.835 49.1035 38.1221 49.124 38.4209 49.165C38.7256 49.2002 38.9541 49.2383 39.1064 49.2793H42.4727ZM34.835 60.5117C34.835 60.957 35.0342 61.2998 35.4326 61.54C35.8369 61.7803 36.4023 61.9004 37.1289 61.9004C38.2539 61.9004 39.0918 61.7393 39.6426 61.417C40.1934 61.0947 40.4688 60.667 40.4688 60.1338C40.4688 59.7119 40.3164 59.4102 40.0117 59.2285C39.7129 59.0527 39.1533 58.9648 38.333 58.9648H36.7686C36.1768 58.9648 35.7051 59.1025 35.3535 59.3779C35.0078 59.6592 34.835 60.0371 34.835 60.5117ZM35.7227 52.4258C35.7227 53.0352 35.8779 53.5039 36.1885 53.832C36.5049 54.1602 36.9561 54.3242 37.542 54.3242C38.7373 54.3242 39.335 53.6855 39.335 52.4082C39.335 51.7754 39.1855 51.2891 38.8867 50.9492C38.5938 50.6035 38.1455 50.4307 37.542 50.4307C36.9443 50.4307 36.4902 50.6006 36.1797 50.9404C35.875 51.2803 35.7227 51.7754 35.7227 52.4258ZM46.3486 59H44.2832V45.3242H46.3486V59ZM55.3926 59L54.9795 57.6465H54.9092C54.4404 58.2383 53.9688 58.6426 53.4941 58.8594C53.0195 59.0703 52.4102 59.1758 51.666 59.1758C50.7109 59.1758 49.9639 58.918 49.4248 58.4023C48.8916 57.8867 48.625 57.1572 48.625 56.2139C48.625 55.2119 48.9971 54.4561 49.7412 53.9463C50.4854 53.4365 51.6191 53.1582 53.1426 53.1113L54.8213 53.0586V52.54C54.8213 51.9189 54.6748 51.4561 54.3818 51.1514C54.0947 50.8408 53.6465 50.6855 53.0371 50.6855C52.5391 50.6855 52.0615 50.7588 51.6045 50.9053C51.1475 51.0518 50.708 51.2246 50.2861 51.4238L49.6182 49.9473C50.1455 49.6719 50.7227 49.4639 51.3496 49.3232C51.9766 49.1768 52.5684 49.1035 53.125 49.1035C54.3613 49.1035 55.293 49.373 55.9199 49.9121C56.5527 50.4512 56.8691 51.2979 56.8691 52.4521V59H55.3926ZM52.3164 57.5938C53.0664 57.5938 53.667 57.3857 54.1182 56.9697C54.5752 56.5479 54.8037 55.959 54.8037 55.2031V54.3594L53.5557 54.4121C52.583 54.4473 51.874 54.6113 51.4287 54.9043C50.9893 55.1914 50.7695 55.6338 50.7695 56.2314C50.7695 56.665 50.8984 57.002 51.1562 57.2422C51.4141 57.4766 51.8008 57.5938 52.3164 57.5938ZM66.2822 56.2314C66.2822 57.1807 65.9365 57.9102 65.2451 58.4199C64.5537 58.9238 63.5635 59.1758 62.2744 59.1758C60.9795 59.1758 59.9395 58.9795 59.1543 58.5869V56.8027C60.2969 57.3301 61.3604 57.5938 62.3447 57.5938C63.6162 57.5938 64.252 57.21 64.252 56.4424C64.252 56.1963 64.1816 55.9912 64.041 55.8271C63.9004 55.6631 63.6689 55.4932 63.3467 55.3174C63.0244 55.1416 62.5762 54.9424 62.002 54.7197C60.8828 54.2861 60.124 53.8525 59.7256 53.4189C59.333 52.9854 59.1367 52.4229 59.1367 51.7314C59.1367 50.8994 59.4707 50.2549 60.1387 49.7979C60.8125 49.335 61.7266 49.1035 62.8809 49.1035C64.0234 49.1035 65.1045 49.335 66.124 49.7979L65.4561 51.3535C64.4072 50.9199 63.5254 50.7031 62.8105 50.7031C61.7207 50.7031 61.1758 51.0137 61.1758 51.6348C61.1758 51.9395 61.3164 52.1973 61.5977 52.4082C61.8848 52.6191 62.5059 52.9092 63.4609 53.2783C64.2637 53.5889 64.8467 53.873 65.21 54.1309C65.5732 54.3887 65.8428 54.6875 66.0186 55.0273C66.1943 55.3613 66.2822 55.7627 66.2822 56.2314ZM75.0537 56.2314C75.0537 57.1807 74.708 57.9102 74.0166 58.4199C73.3252 58.9238 72.335 59.1758 71.0459 59.1758C69.751 59.1758 68.7109 58.9795 67.9258 58.5869V56.8027C69.0684 57.3301 70.1318 57.5938 71.1162 57.5938C72.3877 57.5938 73.0234 57.21 73.0234 56.4424C73.0234 56.1963 72.9531 55.9912 72.8125 55.8271C72.6719 55.6631 72.4404 55.4932 72.1182 55.3174C71.7959 55.1416 71.3477 54.9424 70.7734 54.7197C69.6543 54.2861 68.8955 53.8525 68.4971 53.4189C68.1045 52.9854 67.9082 52.4229 67.9082 51.7314C67.9082 50.8994 68.2422 50.2549 68.9102 49.7979C69.584 49.335 70.498 49.1035 71.6523 49.1035C72.7949 49.1035 73.876 49.335 74.8955 49.7979L74.2275 51.3535C73.1787 50.9199 72.2969 50.7031 71.582 50.7031C70.4922 50.7031 69.9473 51.0137 69.9473 51.6348C69.9473 51.9395 70.0879 52.1973 70.3691 52.4082C70.6562 52.6191 71.2773 52.9092 72.2324 53.2783C73.0352 53.5889 73.6182 53.873 73.9814 54.1309C74.3447 54.3887 74.6143 54.6875 74.79 55.0273C74.9658 55.3613 75.0537 55.7627 75.0537 56.2314ZM81.54 59.1758C80.0283 59.1758 78.8447 58.7363 77.9893 57.8574C77.1396 56.9727 76.7148 55.7568 76.7148 54.21C76.7148 52.6221 77.1104 51.374 77.9014 50.4658C78.6924 49.5576 79.7793 49.1035 81.1621 49.1035C82.4453 49.1035 83.459 49.4932 84.2031 50.2725C84.9473 51.0518 85.3193 52.124 85.3193 53.4893V54.6055H78.8418C78.8711 55.5488 79.126 56.2754 79.6064 56.7852C80.0869 57.2891 80.7637 57.541 81.6367 57.541C82.2109 57.541 82.7441 57.4883 83.2363 57.3828C83.7344 57.2715 84.2676 57.0898 84.8359 56.8379V58.5166C84.332 58.7568 83.8223 58.9268 83.3066 59.0264C82.791 59.126 82.2021 59.1758 81.54 59.1758ZM81.1621 50.668C80.5059 50.668 79.9785 50.876 79.5801 51.292C79.1875 51.708 78.9531 52.3145 78.877 53.1113H83.2891C83.2773 52.3086 83.084 51.7021 82.709 51.292C82.334 50.876 81.8184 50.668 81.1621 50.668ZM94.1963 56.2314C94.1963 57.1807 93.8506 57.9102 93.1592 58.4199C92.4678 58.9238 91.4775 59.1758 90.1885 59.1758C88.8936 59.1758 87.8535 58.9795 87.0684 58.5869V56.8027C88.2109 57.3301 89.2744 57.5938 90.2588 57.5938C91.5303 57.5938 92.166 57.21 92.166 56.4424C92.166 56.1963 92.0957 55.9912 91.9551 55.8271C91.8145 55.6631 91.583 55.4932 91.2607 55.3174C90.9385 55.1416 90.4902 54.9424 89.916 54.7197C88.7969 54.2861 88.0381 53.8525 87.6396 53.4189C87.2471 52.9854 87.0508 52.4229 87.0508 51.7314C87.0508 50.8994 87.3848 50.2549 88.0527 49.7979C88.7266 49.335 89.6406 49.1035 90.7949 49.1035C91.9375 49.1035 93.0186 49.335 94.0381 49.7979L93.3701 51.3535C92.3213 50.9199 91.4395 50.7031 90.7246 50.7031C89.6348 50.7031 89.0898 51.0137 89.0898 51.6348C89.0898 51.9395 89.2305 52.1973 89.5117 52.4082C89.7988 52.6191 90.4199 52.9092 91.375 53.2783C92.1777 53.5889 92.7607 53.873 93.124 54.1309C93.4873 54.3887 93.7568 54.6875 93.9326 55.0273C94.1084 55.3613 94.1963 55.7627 94.1963 56.2314Z" fill="#425A60"/>
    <defs>
        <linearGradient id="paint0_linear_1_59" x1="15.0878" y1="2.73866" x2="15.0878" y2="20.8749" gradientUnits="userSpaceOnUse">
            <stop stop-color="#89959C" stop-opacity="0.628551"/>
            <stop offset="1" stop-color="#3A4850"/>
        </linearGradient>
        <linearGradient id="paint1_linear_1_59" x1="78.2434" y1="2.73866" x2="78.2434" y2="21.1248" gradientUnits="userSpaceOnUse">
            <stop stop-color="#89959C" stop-opacity="0.628551"/>
            <stop offset="1" stop-color="#3A4850"/>
        </linearGradient>
    </defs>
</svg>
