<svg width="93" height="66" viewBox="0 0 93 66" fill="none" xmlns="http://www.w3.org/2000/svg">
    <path d="M9.33984 60H2.07129V47.1504H9.33984V48.9258H4.17188V52.4238H9.01465V54.1816H4.17188V58.2158H9.33984V60ZM10.4297 50.2793H12.6797L14.6572 55.79C14.9561 56.5752 15.1553 57.3135 15.2549 58.0049H15.3252C15.3779 57.6826 15.4746 57.293 15.6152 56.8359C15.7559 56.373 16.5 54.1875 17.8477 50.2793H20.0801L15.9229 61.292C15.167 63.3135 13.9072 64.3242 12.1436 64.3242C11.6865 64.3242 11.2412 64.2744 10.8076 64.1748V62.54C11.1182 62.6104 11.4727 62.6455 11.8711 62.6455C12.8672 62.6455 13.5674 62.0684 13.9717 60.9141L14.332 60L10.4297 50.2793ZM25.8018 60.1758C24.29 60.1758 23.1064 59.7363 22.251 58.8574C21.4014 57.9727 20.9766 56.7568 20.9766 55.21C20.9766 53.6221 21.3721 52.374 22.1631 51.4658C22.9541 50.5576 24.041 50.1035 25.4238 50.1035C26.707 50.1035 27.7207 50.4932 28.4648 51.2725C29.209 52.0518 29.5811 53.124 29.5811 54.4893V55.6055H23.1035C23.1328 56.5488 23.3877 57.2754 23.8682 57.7852C24.3486 58.2891 25.0254 58.541 25.8984 58.541C26.4727 58.541 27.0059 58.4883 27.498 58.3828C27.9961 58.2715 28.5293 58.0898 29.0977 57.8379V59.5166C28.5938 59.7568 28.084 59.9268 27.5684 60.0264C27.0527 60.126 26.4639 60.1758 25.8018 60.1758ZM25.4238 51.668C24.7676 51.668 24.2402 51.876 23.8418 52.292C23.4492 52.708 23.2148 53.3145 23.1387 54.1113H27.5508C27.5391 53.3086 27.3457 52.7021 26.9707 52.292C26.5957 51.876 26.0801 51.668 25.4238 51.668ZM40.1367 50.2793V51.4131L38.4756 51.7207C38.6279 51.9258 38.7539 52.1777 38.8535 52.4766C38.9531 52.7754 39.0029 53.0918 39.0029 53.4258C39.0029 54.4277 38.6572 55.2158 37.9658 55.79C37.2744 56.3643 36.3223 56.6514 35.1094 56.6514C34.7988 56.6514 34.5176 56.6279 34.2656 56.5811C33.8203 56.8564 33.5977 57.1787 33.5977 57.5479C33.5977 57.7705 33.7002 57.9375 33.9053 58.0488C34.1162 58.1602 34.5 58.2158 35.0566 58.2158H36.7529C37.8252 58.2158 38.6396 58.4443 39.1963 58.9014C39.7529 59.3584 40.0312 60.0176 40.0312 60.8789C40.0312 61.9805 39.5771 62.8301 38.6689 63.4277C37.7607 64.0254 36.4482 64.3242 34.7314 64.3242C33.4072 64.3242 32.3965 64.0898 31.6992 63.6211C31.002 63.1523 30.6533 62.4844 30.6533 61.6172C30.6533 61.0195 30.8408 60.5156 31.2158 60.1055C31.5967 59.7012 32.127 59.4199 32.8066 59.2617C32.5312 59.1445 32.3027 58.957 32.1211 58.6992C31.9453 58.4355 31.8574 58.1602 31.8574 57.873C31.8574 57.5098 31.96 57.2021 32.165 56.9502C32.3701 56.6982 32.6748 56.4492 33.0791 56.2031C32.5752 55.9863 32.165 55.6348 31.8486 55.1484C31.5381 54.6562 31.3828 54.082 31.3828 53.4258C31.3828 52.3711 31.7139 51.5537 32.376 50.9736C33.0439 50.3936 33.9932 50.1035 35.2236 50.1035C35.499 50.1035 35.7861 50.124 36.085 50.165C36.3896 50.2002 36.6182 50.2383 36.7705 50.2793H40.1367ZM32.499 61.5117C32.499 61.957 32.6982 62.2998 33.0967 62.54C33.501 62.7803 34.0664 62.9004 34.793 62.9004C35.918 62.9004 36.7559 62.7393 37.3066 62.417C37.8574 62.0947 38.1328 61.667 38.1328 61.1338C38.1328 60.7119 37.9805 60.4102 37.6758 60.2285C37.377 60.0527 36.8174 59.9648 35.9971 59.9648H34.4326C33.8408 59.9648 33.3691 60.1025 33.0176 60.3779C32.6719 60.6592 32.499 61.0371 32.499 61.5117ZM33.3867 53.4258C33.3867 54.0352 33.542 54.5039 33.8525 54.832C34.1689 55.1602 34.6201 55.3242 35.2061 55.3242C36.4014 55.3242 36.999 54.6855 36.999 53.4082C36.999 52.7754 36.8496 52.2891 36.5508 51.9492C36.2578 51.6035 35.8096 51.4307 35.2061 51.4307C34.6084 51.4307 34.1543 51.6006 33.8438 51.9404C33.5391 52.2803 33.3867 52.7754 33.3867 53.4258ZM44.0127 60H41.9473V46.3242H44.0127V60ZM53.0566 60L52.6436 58.6465H52.5732C52.1045 59.2383 51.6328 59.6426 51.1582 59.8594C50.6836 60.0703 50.0742 60.1758 49.3301 60.1758C48.375 60.1758 47.6279 59.918 47.0889 59.4023C46.5557 58.8867 46.2891 58.1572 46.2891 57.2139C46.2891 56.2119 46.6611 55.4561 47.4053 54.9463C48.1494 54.4365 49.2832 54.1582 50.8066 54.1113L52.4854 54.0586V53.54C52.4854 52.9189 52.3389 52.4561 52.0459 52.1514C51.7588 51.8408 51.3105 51.6855 50.7012 51.6855C50.2031 51.6855 49.7256 51.7588 49.2686 51.9053C48.8115 52.0518 48.3721 52.2246 47.9502 52.4238L47.2822 50.9473C47.8096 50.6719 48.3867 50.4639 49.0137 50.3232C49.6406 50.1768 50.2324 50.1035 50.7891 50.1035C52.0254 50.1035 52.957 50.373 53.584 50.9121C54.2168 51.4512 54.5332 52.2979 54.5332 53.4521V60H53.0566ZM49.9805 58.5938C50.7305 58.5938 51.3311 58.3857 51.7822 57.9697C52.2393 57.5479 52.4678 56.959 52.4678 56.2031V55.3594L51.2197 55.4121C50.2471 55.4473 49.5381 55.6113 49.0928 55.9043C48.6533 56.1914 48.4336 56.6338 48.4336 57.2314C48.4336 57.665 48.5625 58.002 48.8203 58.2422C49.0781 58.4766 49.4648 58.5938 49.9805 58.5938ZM63.9463 57.2314C63.9463 58.1807 63.6006 58.9102 62.9092 59.4199C62.2178 59.9238 61.2275 60.1758 59.9385 60.1758C58.6436 60.1758 57.6035 59.9795 56.8184 59.5869V57.8027C57.9609 58.3301 59.0244 58.5938 60.0088 58.5938C61.2803 58.5938 61.916 58.21 61.916 57.4424C61.916 57.1963 61.8457 56.9912 61.7051 56.8271C61.5645 56.6631 61.333 56.4932 61.0107 56.3174C60.6885 56.1416 60.2402 55.9424 59.666 55.7197C58.5469 55.2861 57.7881 54.8525 57.3896 54.4189C56.9971 53.9854 56.8008 53.4229 56.8008 52.7314C56.8008 51.8994 57.1348 51.2549 57.8027 50.7979C58.4766 50.335 59.3906 50.1035 60.5449 50.1035C61.6875 50.1035 62.7686 50.335 63.7881 50.7979L63.1201 52.3535C62.0713 51.9199 61.1895 51.7031 60.4746 51.7031C59.3848 51.7031 58.8398 52.0137 58.8398 52.6348C58.8398 52.9395 58.9805 53.1973 59.2617 53.4082C59.5488 53.6191 60.1699 53.9092 61.125 54.2783C61.9277 54.5889 62.5107 54.873 62.874 55.1309C63.2373 55.3887 63.5068 55.6875 63.6826 56.0273C63.8584 56.3613 63.9463 56.7627 63.9463 57.2314ZM72.7178 57.2314C72.7178 58.1807 72.3721 58.9102 71.6807 59.4199C70.9893 59.9238 69.999 60.1758 68.71 60.1758C67.415 60.1758 66.375 59.9795 65.5898 59.5869V57.8027C66.7324 58.3301 67.7959 58.5938 68.7803 58.5938C70.0518 58.5938 70.6875 58.21 70.6875 57.4424C70.6875 57.1963 70.6172 56.9912 70.4766 56.8271C70.3359 56.6631 70.1045 56.4932 69.7822 56.3174C69.46 56.1416 69.0117 55.9424 68.4375 55.7197C67.3184 55.2861 66.5596 54.8525 66.1611 54.4189C65.7686 53.9854 65.5723 53.4229 65.5723 52.7314C65.5723 51.8994 65.9062 51.2549 66.5742 50.7979C67.248 50.335 68.1621 50.1035 69.3164 50.1035C70.459 50.1035 71.54 50.335 72.5596 50.7979L71.8916 52.3535C70.8428 51.9199 69.9609 51.7031 69.2461 51.7031C68.1562 51.7031 67.6113 52.0137 67.6113 52.6348C67.6113 52.9395 67.752 53.1973 68.0332 53.4082C68.3203 53.6191 68.9414 53.9092 69.8965 54.2783C70.6992 54.5889 71.2822 54.873 71.6455 55.1309C72.0088 55.3887 72.2783 55.6875 72.4541 56.0273C72.6299 56.3613 72.7178 56.7627 72.7178 57.2314ZM79.2041 60.1758C77.6924 60.1758 76.5088 59.7363 75.6533 58.8574C74.8037 57.9727 74.3789 56.7568 74.3789 55.21C74.3789 53.6221 74.7744 52.374 75.5654 51.4658C76.3564 50.5576 77.4434 50.1035 78.8262 50.1035C80.1094 50.1035 81.123 50.4932 81.8672 51.2725C82.6113 52.0518 82.9834 53.124 82.9834 54.4893V55.6055H76.5059C76.5352 56.5488 76.79 57.2754 77.2705 57.7852C77.751 58.2891 78.4277 58.541 79.3008 58.541C79.875 58.541 80.4082 58.4883 80.9004 58.3828C81.3984 58.2715 81.9316 58.0898 82.5 57.8379V59.5166C81.9961 59.7568 81.4863 59.9268 80.9707 60.0264C80.4551 60.126 79.8662 60.1758 79.2041 60.1758ZM78.8262 51.668C78.1699 51.668 77.6426 51.876 77.2441 52.292C76.8516 52.708 76.6172 53.3145 76.541 54.1113H80.9531C80.9414 53.3086 80.748 52.7021 80.373 52.292C79.998 51.876 79.4824 51.668 78.8262 51.668ZM91.8604 57.2314C91.8604 58.1807 91.5146 58.9102 90.8232 59.4199C90.1318 59.9238 89.1416 60.1758 87.8525 60.1758C86.5576 60.1758 85.5176 59.9795 84.7324 59.5869V57.8027C85.875 58.3301 86.9385 58.5938 87.9229 58.5938C89.1943 58.5938 89.8301 58.21 89.8301 57.4424C89.8301 57.1963 89.7598 56.9912 89.6191 56.8271C89.4785 56.6631 89.2471 56.4932 88.9248 56.3174C88.6025 56.1416 88.1543 55.9424 87.5801 55.7197C86.4609 55.2861 85.7021 54.8525 85.3037 54.4189C84.9111 53.9854 84.7148 53.4229 84.7148 52.7314C84.7148 51.8994 85.0488 51.2549 85.7168 50.7979C86.3906 50.335 87.3047 50.1035 88.459 50.1035C89.6016 50.1035 90.6826 50.335 91.7021 50.7979L91.0342 52.3535C89.9854 51.9199 89.1035 51.7031 88.3887 51.7031C87.2988 51.7031 86.7539 52.0137 86.7539 52.6348C86.7539 52.9395 86.8945 53.1973 87.1758 53.4082C87.4629 53.6191 88.084 53.9092 89.0391 54.2783C89.8418 54.5889 90.4248 54.873 90.7881 55.1309C91.1514 55.3887 91.4209 55.6875 91.5967 56.0273C91.7725 56.3613 91.8604 56.7627 91.8604 57.2314Z" fill="#425A60"/>
    <path fill-rule="evenodd" clip-rule="evenodd" d="M75.2457 7.20117C75.2457 14.9776 69.151 20.5712 61.4728 20.5712C53.7945 20.5712 50.3379 15.725 50.1875 10.6351C50.0972 6.64244 56.2665 4.60035 62.8821 3.22881C70.1699 2.37541 75.3761 2.22303 75.2457 7.20117ZM40.9893 10.6351C40.8388 15.725 37.3795 20.5712 29.6951 20.5712C22.0108 20.5712 15.9112 14.9776 15.9112 7.20117C15.7807 2.22303 20.991 2.37541 28.2846 3.22881C34.9055 4.60035 41.0797 6.64244 40.9893 10.6351ZM79.1479 4.53936C79.3285 0.231728 69.7486 1.06481 69.7486 1.06481C60.4796 0.912426 49.7361 5.83983 49.7361 5.83983C48.2236 6.66467 45.7538 6.73019 45.5903 6.73368C45.4265 6.73019 42.9548 6.66467 41.4411 5.83983C41.4411 5.83983 30.689 0.912426 21.4127 1.06481C21.4127 1.06481 11.8252 0.231728 12.0059 4.53936C12.0059 4.53936 11.534 12.0981 19.0334 18.2549C19.0334 18.2549 23.8522 22.3389 29.8156 22.0952C29.8156 22.0952 36.5319 22.278 40.2364 17.4014C40.2364 17.4014 41.923 14.7869 43.1277 11.5528C43.1277 11.5528 43.3114 10.0498 45.5903 9.98526C47.8673 10.0498 48.0508 11.5528 48.0508 11.5528C49.2546 14.7869 50.9398 17.4014 50.9398 17.4014C54.6414 22.278 61.3523 22.0952 61.3523 22.0952C67.311 22.3389 72.126 18.2549 72.126 18.2549C79.6194 12.0981 79.1479 4.53936 79.1479 4.53936Z" fill="#3A4850"/>
    <path d="M50.1875 10.6351L49.9375 10.6408L49.9376 10.6425L50.1875 10.6351ZM62.8821 3.22881L62.8531 2.98051L62.8421 2.98179L62.8314 2.98402L62.8821 3.22881ZM15.9112 7.20117H16.1612L16.1611 7.19462L15.9112 7.20117ZM28.2846 3.22881L28.3353 2.98401L28.3246 2.98178L28.3137 2.98051L28.2846 3.22881ZM69.7486 1.06481L69.7445 1.31477L69.7574 1.31498L69.7702 1.31387L69.7486 1.06481ZM49.7361 5.83983L49.6319 5.61259L49.624 5.6162L49.6164 5.62034L49.7361 5.83983ZM45.5903 6.73368L45.5849 6.98385L45.5956 6.98362L45.5903 6.73368ZM41.4411 5.83983L41.5607 5.6203L41.5531 5.61616L41.5453 5.61256L41.4411 5.83983ZM21.4127 1.06481L21.3911 1.31387L21.4039 1.31498L21.4168 1.31477L21.4127 1.06481ZM12.0059 4.53936L12.2554 4.55494L12.2562 4.54192L12.2557 4.52889L12.0059 4.53936ZM19.0334 18.2549L19.195 18.0641L19.192 18.0616L19.0334 18.2549ZM29.8156 22.0952L29.8224 21.8452L29.8139 21.845L29.8054 21.8454L29.8156 22.0952ZM40.2364 17.4014L40.4354 17.5527L40.4412 17.545L40.4464 17.537L40.2364 17.4014ZM43.1277 11.5528L43.362 11.6401L43.3723 11.6125L43.3758 11.5832L43.1277 11.5528ZM45.5903 9.98526L45.5973 9.73536L45.5903 9.73516L45.5832 9.73536L45.5903 9.98526ZM48.0508 11.5528L47.8026 11.5831L47.8062 11.6124L47.8165 11.64L48.0508 11.5528ZM50.9398 17.4014L50.7297 17.5369L50.7349 17.545L50.7407 17.5526L50.9398 17.4014ZM61.3523 22.0952L61.3625 21.8454L61.354 21.845L61.3455 21.8452L61.3523 22.0952ZM72.126 18.2549L71.9673 18.0617L71.9643 18.0642L72.126 18.2549ZM74.9957 7.20117C74.9957 14.8287 69.024 20.3212 61.4728 20.3212V20.8212C69.2779 20.8212 75.4957 15.1265 75.4957 7.20117H74.9957ZM61.4728 20.3212C57.6886 20.3212 54.9725 19.1286 53.1842 17.3354C51.3933 15.5396 50.511 13.1196 50.4374 10.6277L49.9376 10.6425C50.0144 13.2405 50.9356 15.7886 52.8302 17.6884C54.7273 19.5908 57.5786 20.8212 61.4728 20.8212V20.3212ZM50.4374 10.6295C50.3958 8.78771 51.7925 7.34438 54.132 6.17257C56.4592 5.00696 59.6284 4.15869 62.9329 3.47361L62.8314 2.98402C59.5202 3.67047 56.2969 4.52901 53.9081 5.72551C51.5317 6.91579 49.8889 8.48985 49.9375 10.6408L50.4374 10.6295ZM62.9112 3.47712C66.564 3.04937 69.6445 2.80541 71.7926 3.27245C72.8607 3.50468 73.6694 3.90713 74.205 4.52419C74.7373 5.13749 75.0273 5.99466 74.9958 7.19462L75.4957 7.20772C75.5294 5.9186 75.2175 4.92802 74.5826 4.19646C73.9509 3.46866 73.027 3.02914 71.8989 2.78387C69.6546 2.29592 66.488 2.55485 62.8531 2.98051L62.9112 3.47712ZM40.7394 10.6277C40.6657 13.1196 39.7827 15.5395 37.9905 17.3353C36.2007 19.1286 33.4824 20.3212 29.6951 20.3212V20.8212C33.5923 20.8212 36.4458 19.5908 38.3444 17.6885C40.2404 15.7887 41.1624 13.2406 41.2392 10.6425L40.7394 10.6277ZM29.6951 20.3212C22.1376 20.3212 16.1612 14.8285 16.1612 7.20117H15.6612C15.6612 15.1267 21.884 20.8212 29.6951 20.8212V20.3212ZM16.1611 7.19462C16.1296 5.99471 16.4198 5.13757 16.9525 4.52427C17.4886 3.90718 18.2979 3.5047 19.3669 3.27246C21.5169 2.8054 24.5999 3.04938 28.2556 3.47712L28.3137 2.98051C24.6758 2.55485 21.5068 2.29593 19.2608 2.78386C18.1318 3.02912 17.2072 3.46861 16.5751 4.19638C15.9396 4.92794 15.6275 5.91856 15.6612 7.20772L16.1611 7.19462ZM28.2339 3.47362C31.541 4.1587 34.7128 5.00698 37.0418 6.1726C39.3833 7.34447 40.7811 8.78782 40.7394 10.6295L41.2393 10.6408C41.2879 8.48975 39.6438 6.91571 37.2656 5.72547C34.8749 4.529 31.6491 3.67046 28.3353 2.98401L28.2339 3.47362ZM79.3977 4.54983C79.4477 3.35684 78.8117 2.52564 77.8848 1.96524C76.9688 1.41145 75.7485 1.10585 74.5504 0.939108C73.3473 0.771668 72.1419 0.741084 71.2396 0.751963C70.7878 0.757409 70.4107 0.77327 70.1462 0.787799C70.0138 0.795066 69.9096 0.802003 69.8382 0.807148C69.8024 0.80972 69.7749 0.811845 69.7562 0.813339C69.7468 0.814086 69.7396 0.814675 69.7347 0.815084C69.7323 0.815288 69.7304 0.815448 69.7291 0.815559C69.7284 0.815615 69.7279 0.815658 69.7276 0.81569C69.7274 0.815705 69.7272 0.81572 69.7271 0.815727C69.727 0.815738 69.7269 0.815746 69.7486 1.06481C69.7702 1.31387 69.7702 1.31387 69.7702 1.31387C69.7703 1.31386 69.7703 1.31386 69.7705 1.31385C69.7707 1.31383 69.771 1.3138 69.7715 1.31375C69.7726 1.31367 69.7741 1.31353 69.7763 1.31335C69.7806 1.31299 69.7872 1.31245 69.7959 1.31176C69.8134 1.31036 69.8397 1.30833 69.8741 1.30586C69.9429 1.3009 70.0443 1.29415 70.1736 1.28705C70.4322 1.27284 70.8021 1.25727 71.2456 1.25193C72.1339 1.24122 73.3122 1.27159 74.4815 1.43433C75.6558 1.59777 76.7966 1.89159 77.6261 2.39312C78.4447 2.88804 78.9384 3.56807 78.8981 4.52889L79.3977 4.54983ZM69.7527 0.81484C65.0785 0.737997 60.0454 1.94091 56.1913 3.15676C54.262 3.76538 52.6235 4.37875 51.467 4.8401C50.8887 5.0708 50.4307 5.26357 50.1169 5.39882C49.96 5.46645 49.8391 5.51971 49.7573 5.55615C49.7164 5.57437 49.6853 5.58839 49.6642 5.5979C49.6537 5.60265 49.6457 5.60628 49.6403 5.60874C49.6376 5.60997 49.6356 5.61091 49.6342 5.61155C49.6335 5.61187 49.6329 5.61212 49.6325 5.61229C49.6323 5.61238 49.6322 5.61245 49.6321 5.6125C49.632 5.61255 49.6319 5.61259 49.7361 5.83983C49.8403 6.06707 49.8403 6.06707 49.8404 6.06705C49.8405 6.06701 49.8405 6.06697 49.8407 6.06691C49.841 6.06678 49.8414 6.06658 49.842 6.06631C49.8432 6.06576 49.8451 6.06491 49.8475 6.06377C49.8525 6.0615 49.8601 6.05806 49.8702 6.0535C49.8904 6.04437 49.9207 6.03073 49.9607 6.0129C50.0408 5.97724 50.1598 5.92478 50.3148 5.85798C50.6248 5.72436 51.0785 5.53337 51.6522 5.30451C52.7998 4.84673 54.4265 4.23777 56.3417 3.63359C60.1766 2.42383 65.1497 1.23923 69.7445 1.31477L69.7527 0.81484ZM49.6164 5.62034C48.9 6.01104 47.9401 6.22863 47.1214 6.34735C46.3084 6.46526 45.6611 6.48211 45.5849 6.48374L45.5956 6.98362C45.683 6.98176 46.3524 6.96411 47.1932 6.84217C48.0284 6.72105 49.0597 6.49345 49.8558 6.05931L49.6164 5.62034ZM45.5956 6.48374C45.5193 6.48211 44.8715 6.46526 44.0578 6.34735C43.2384 6.22862 42.2778 6.01103 41.5607 5.6203L41.3215 6.05935C42.1182 6.49347 43.1502 6.72106 43.9861 6.84218C44.8275 6.96411 45.4975 6.98176 45.5849 6.98362L45.5956 6.48374ZM41.4411 5.83983C41.5453 5.61256 41.5452 5.61252 41.5451 5.61246C41.545 5.61242 41.5448 5.61235 41.5446 5.61226C41.5442 5.61209 41.5437 5.61184 41.543 5.61152C41.5416 5.61088 41.5395 5.60994 41.5368 5.60871C41.5314 5.60625 41.5234 5.60262 41.5129 5.59787C41.4919 5.58836 41.4607 5.57434 41.4197 5.55612C41.3378 5.51968 41.2169 5.46642 41.0599 5.39879C40.7459 5.26354 40.2875 5.07077 39.7087 4.84007C38.5513 4.37872 36.9115 3.76536 34.9807 3.15674C31.1235 1.9409 26.0864 0.737998 21.4086 0.81484L21.4168 1.31477C26.0153 1.23923 30.9924 2.42384 34.8304 3.63361C36.7471 4.23779 38.3751 4.84676 39.5236 5.30453C40.0978 5.53339 40.5519 5.72439 40.8621 5.85801C41.0172 5.92481 41.1363 5.97727 41.2165 6.01293C41.2565 6.03076 41.2868 6.0444 41.3071 6.05353C41.3172 6.05809 41.3247 6.06153 41.3297 6.06381C41.3322 6.06494 41.3341 6.06579 41.3353 6.06634C41.3359 6.06661 41.3363 6.06682 41.3366 6.06694C41.3368 6.06701 41.3368 6.06704 41.3369 6.06708C41.337 6.0671 41.337 6.0671 41.4411 5.83983ZM21.4127 1.06481C21.4343 0.815745 21.4342 0.815737 21.4341 0.815726C21.434 0.815718 21.4339 0.815704 21.4337 0.815688C21.4333 0.815657 21.4328 0.815613 21.4322 0.815558C21.4308 0.815446 21.429 0.815287 21.4265 0.815083C21.4216 0.814674 21.4144 0.814085 21.4051 0.813338C21.3863 0.811844 21.3588 0.809719 21.323 0.807147C21.2515 0.802003 21.1472 0.795065 21.0148 0.787799C20.75 0.773269 20.3726 0.757409 19.9205 0.751963C19.0174 0.741084 17.8111 0.771667 16.6071 0.939104C15.4081 1.10585 14.1868 1.41143 13.2702 1.9652C12.3427 2.52555 11.7061 3.35675 11.7561 4.54984L12.2557 4.52889C12.2154 3.56816 12.7094 2.88813 13.5288 2.39316C14.359 1.89161 15.5007 1.59778 16.676 1.43434C17.8463 1.27159 19.0255 1.24122 19.9145 1.25193C20.3584 1.25727 20.7286 1.27285 20.9874 1.28705C21.1168 1.29415 21.2183 1.3009 21.2871 1.30586C21.3216 1.30833 21.3478 1.31036 21.3653 1.31176C21.3741 1.31246 21.3807 1.313 21.385 1.31336C21.3871 1.31353 21.3887 1.31367 21.3897 1.31376C21.3903 1.3138 21.3906 1.31383 21.3908 1.31385C21.3909 1.31386 21.391 1.31386 21.3911 1.31387C21.3911 1.31387 21.3911 1.31387 21.4127 1.06481ZM12.0059 4.53936C11.7564 4.52379 11.7564 4.52394 11.7564 4.52413C11.7564 4.52423 11.7563 4.52444 11.7563 4.52464C11.7563 4.52504 11.7563 4.52555 11.7562 4.52618C11.7562 4.52744 11.7561 4.52916 11.7559 4.53133C11.7557 4.53568 11.7554 4.54184 11.755 4.54979C11.7543 4.56569 11.7534 4.58872 11.7525 4.61861C11.7508 4.6784 11.7494 4.76565 11.7503 4.87817C11.7521 5.10319 11.7632 5.42939 11.8004 5.83918C11.8746 6.65862 12.0529 7.81327 12.4685 9.16195C13.3002 11.861 15.0818 15.3342 18.8747 18.4481L19.192 18.0616C15.4856 15.0188 13.7535 11.6342 12.9463 9.01471C12.5424 7.7041 12.3699 6.58427 12.2983 5.79405C12.2625 5.39901 12.252 5.08658 12.2503 4.87418C12.2494 4.76799 12.2508 4.68684 12.2523 4.6329C12.2531 4.60593 12.2539 4.58576 12.2545 4.57268C12.2548 4.56614 12.2551 4.56136 12.2552 4.5584C12.2553 4.55691 12.2554 4.55588 12.2554 4.5553C12.2554 4.55501 12.2554 4.55484 12.2554 4.55478C12.2554 4.55475 12.2554 4.55479 12.2554 4.55477C12.2554 4.55484 12.2554 4.55494 12.0059 4.53936ZM19.0334 18.2549C18.8717 18.4456 18.8718 18.4456 18.8719 18.4457C18.872 18.4458 18.8721 18.4459 18.8722 18.446C18.8724 18.4461 18.8727 18.4464 18.8731 18.4467C18.8738 18.4473 18.8749 18.4482 18.8762 18.4493C18.8789 18.4516 18.8827 18.4548 18.8877 18.4589C18.8977 18.4672 18.9122 18.4792 18.9313 18.4947C18.9695 18.5257 19.0256 18.5706 19.0989 18.6274C19.2454 18.741 19.4604 18.9022 19.7367 19.0944C20.2892 19.4787 21.0878 19.9879 22.075 20.4893C24.0467 21.4908 26.786 22.4692 29.8258 22.3449L29.8054 21.8454C26.8818 21.9649 24.23 21.0231 22.3014 20.0435C21.3385 19.5544 20.5597 19.0578 20.0223 18.6839C19.7536 18.4971 19.5456 18.3411 19.4053 18.2323C19.3351 18.1779 19.2819 18.1353 19.2466 18.1066C19.2289 18.0923 19.2157 18.0814 19.2071 18.0742C19.2028 18.0706 19.1996 18.068 19.1976 18.0663C19.1966 18.0654 19.1958 18.0648 19.1954 18.0645C19.1952 18.0643 19.1951 18.0642 19.195 18.0641C19.195 18.0641 19.195 18.0641 19.195 18.0641C19.195 18.0641 19.195 18.0641 19.0334 18.2549ZM29.8156 22.0952C29.8088 22.3451 29.8089 22.3451 29.8091 22.3451C29.8092 22.3451 29.8093 22.3451 29.8095 22.3451C29.8098 22.3451 29.8102 22.3451 29.8108 22.3451C29.8118 22.3451 29.8133 22.3452 29.8152 22.3452C29.8189 22.3453 29.8242 22.3454 29.8312 22.3455C29.845 22.3457 29.8651 22.3459 29.8912 22.346C29.9434 22.3462 30.0196 22.3457 30.1174 22.3434C30.3129 22.3388 30.5949 22.3266 30.9443 22.2966C31.6428 22.2366 32.6126 22.1051 33.7004 21.8188C35.8732 21.2469 38.5372 20.0514 40.4354 17.5527L40.0373 17.2502C38.231 19.628 35.6847 20.7794 33.5732 21.3352C32.5188 21.6128 31.5781 21.7403 30.9015 21.7984C30.5634 21.8275 30.2918 21.8391 30.1055 21.8436C30.0124 21.8458 29.9407 21.8462 29.8927 21.846C29.8687 21.8459 29.8506 21.8457 29.8388 21.8456C29.8329 21.8455 29.8286 21.8454 29.8258 21.8453C29.8245 21.8453 29.8235 21.8453 29.8229 21.8453C29.8226 21.8452 29.8224 21.8452 29.8224 21.8452C29.8223 21.8452 29.8223 21.8452 29.8223 21.8452C29.8224 21.8452 29.8224 21.8452 29.8156 22.0952ZM40.2364 17.4014C40.4464 17.537 40.4465 17.5369 40.4465 17.5369C40.4465 17.5369 40.4465 17.5368 40.4466 17.5367C40.4467 17.5366 40.4468 17.5365 40.4469 17.5363C40.4471 17.5359 40.4475 17.5354 40.4479 17.5347C40.4488 17.5333 40.4501 17.5312 40.4518 17.5286C40.4552 17.5233 40.4602 17.5154 40.4667 17.5052C40.4797 17.4847 40.4988 17.4545 40.5234 17.415C40.5726 17.336 40.644 17.2199 40.7332 17.0708C40.9118 16.7725 41.1621 16.3414 41.4501 15.8089C42.0259 14.7444 42.7543 13.2713 43.362 11.6401L42.8934 11.4656C42.2963 13.0684 41.5791 14.5196 41.0104 15.571C40.7262 16.0963 40.4795 16.521 40.3042 16.814C40.2165 16.9605 40.1467 17.074 40.099 17.1506C40.0751 17.1889 40.0568 17.218 40.0445 17.2374C40.0383 17.2471 40.0337 17.2543 40.0306 17.2591C40.0291 17.2615 40.028 17.2633 40.0273 17.2644C40.0269 17.265 40.0266 17.2654 40.0265 17.2656C40.0264 17.2658 40.0263 17.2659 40.0263 17.2659C40.0263 17.2659 40.0263 17.2659 40.0263 17.2659C40.0263 17.2659 40.0263 17.2659 40.2364 17.4014ZM43.1277 11.5528C43.3758 11.5832 43.3758 11.5833 43.3758 11.5835C43.3758 11.5836 43.3758 11.5837 43.3758 11.5838C43.3757 11.584 43.3757 11.5842 43.3757 11.5844C43.3756 11.5847 43.3756 11.5849 43.3756 11.585C43.3756 11.5853 43.3756 11.5852 43.3756 11.5848C43.3758 11.584 43.3761 11.5818 43.3767 11.5784C43.3778 11.5717 43.38 11.56 43.3837 11.5441C43.391 11.5123 43.4041 11.4639 43.4263 11.4042C43.4707 11.2848 43.5511 11.122 43.6938 10.9565C43.9727 10.6328 44.5184 10.2657 45.5973 10.2352L45.5832 9.73536C44.3832 9.76936 43.6977 10.1861 43.315 10.6301C43.1269 10.8483 43.0189 11.0654 42.9577 11.2298C42.9271 11.312 42.908 11.3815 42.8964 11.4321C42.8906 11.4575 42.8866 11.4782 42.8839 11.4934C42.8826 11.5011 42.8816 11.5074 42.8809 11.5123C42.8806 11.5147 42.8803 11.5168 42.88 11.5185C42.8799 11.5193 42.8798 11.5201 42.8797 11.5208C42.8797 11.5211 42.8797 11.5214 42.8796 11.5217C42.8796 11.5219 42.8796 11.5221 42.8796 11.5221C42.8795 11.5223 42.8795 11.5225 43.1277 11.5528ZM45.5832 10.2352C46.6611 10.2657 47.2063 10.6328 47.485 10.9564C47.6275 11.1219 47.7078 11.2847 47.7522 11.4041C47.7744 11.4638 47.7875 11.5122 47.7948 11.5441C47.7985 11.56 47.8006 11.5716 47.8018 11.5784C47.8024 11.5818 47.8027 11.5839 47.8028 11.5847C47.8029 11.5852 47.8029 11.5852 47.8029 11.585C47.8029 11.5848 47.8028 11.5846 47.8028 11.5843C47.8028 11.5842 47.8027 11.584 47.8027 11.5838C47.8027 11.5837 47.8027 11.5835 47.8027 11.5835C47.8027 11.5833 47.8026 11.5831 48.0508 11.5528C48.299 11.5225 48.2989 11.5224 48.2989 11.5222C48.2989 11.5221 48.2989 11.5219 48.2989 11.5217C48.2988 11.5215 48.2988 11.5212 48.2987 11.5208C48.2987 11.5201 48.2986 11.5194 48.2984 11.5185C48.2982 11.5168 48.2979 11.5147 48.2976 11.5123C48.2968 11.5074 48.2959 11.5011 48.2945 11.4935C48.2919 11.4782 48.2879 11.4575 48.2821 11.4322C48.2705 11.3816 48.2515 11.3121 48.2209 11.2298C48.1597 11.0654 48.0518 10.8484 47.8639 10.6301C47.4815 10.1861 46.7965 9.76937 45.5973 9.73536L45.5832 10.2352ZM47.8165 11.64C48.4237 13.2712 49.1515 14.7443 49.7268 15.8088C50.0146 16.3413 50.2647 16.7724 50.4431 17.0707C50.5323 17.2199 50.6036 17.3359 50.6528 17.4149C50.6774 17.4544 50.6965 17.4846 50.7094 17.5051C50.7159 17.5154 50.7209 17.5232 50.7243 17.5285C50.726 17.5312 50.7273 17.5332 50.7282 17.5346C50.7287 17.5353 50.729 17.5358 50.7293 17.5362C50.7294 17.5364 50.7295 17.5366 50.7296 17.5367C50.7296 17.5367 50.7296 17.5368 50.7296 17.5368C50.7297 17.5369 50.7297 17.5369 50.9398 17.4014C51.15 17.266 51.15 17.266 51.15 17.266C51.15 17.266 51.15 17.266 51.1499 17.266C51.1499 17.2659 51.1499 17.2658 51.1498 17.2657C51.1496 17.2655 51.1493 17.2651 51.149 17.2645C51.1483 17.2633 51.1471 17.2616 51.1456 17.2592C51.1425 17.2544 51.1379 17.2472 51.1318 17.2375C51.1195 17.2181 51.1011 17.189 51.0773 17.1507C51.0296 17.074 50.9598 16.9605 50.8723 16.8141C50.697 16.5211 50.4506 16.0964 50.1667 15.571C49.5984 14.5197 48.8817 13.0685 48.2851 11.4656L47.8165 11.64ZM50.7407 17.5526C52.6374 20.0514 55.2994 21.2468 57.4705 21.8188C58.5574 22.1051 59.5266 22.2366 60.2245 22.2966C60.5737 22.3266 60.8554 22.3388 61.0508 22.3434C61.1485 22.3457 61.2246 22.3462 61.2768 22.346C61.3029 22.3459 61.323 22.3457 61.3368 22.3455C61.3437 22.3454 61.3491 22.3453 61.3528 22.3452C61.3547 22.3452 61.3561 22.3451 61.3572 22.3451C61.3577 22.3451 61.3581 22.3451 61.3585 22.3451C61.3586 22.3451 61.3588 22.3451 61.3589 22.3451C61.359 22.3451 61.3591 22.3451 61.3523 22.0952C61.3455 21.8452 61.3456 21.8452 61.3456 21.8452C61.3456 21.8452 61.3456 21.8452 61.3456 21.8452C61.3455 21.8452 61.3453 21.8452 61.345 21.8453C61.3445 21.8453 61.3435 21.8453 61.3421 21.8453C61.3394 21.8454 61.335 21.8455 61.3291 21.8456C61.3173 21.8457 61.2993 21.8459 61.2753 21.846C61.2274 21.8462 61.1557 21.8458 61.0627 21.8436C60.8766 21.8391 60.6052 21.8275 60.2673 21.7984C59.5913 21.7403 58.6513 21.6128 57.5979 21.3353C55.4881 20.7795 52.9438 19.6281 51.139 17.2503L50.7407 17.5526ZM61.3421 22.3449C64.3796 22.4692 67.1168 21.4908 69.087 20.4893C70.0734 19.9878 70.8714 19.4787 71.4234 19.0944C71.6995 18.9021 71.9144 18.741 72.0607 18.6274C72.134 18.5706 72.1901 18.5256 72.2282 18.4946C72.2473 18.4791 72.2618 18.4671 72.2718 18.4589C72.2768 18.4547 72.2806 18.4515 72.2833 18.4493C72.2846 18.4482 72.2856 18.4473 72.2864 18.4467C72.2867 18.4463 72.287 18.4461 72.2873 18.4459C72.2874 18.4458 72.2875 18.4457 72.2876 18.4457C72.2877 18.4456 72.2877 18.4455 72.126 18.2549C71.9643 18.0642 71.9643 18.0642 71.9644 18.0641C71.9644 18.0642 71.9644 18.0642 71.9643 18.0642C71.9643 18.0642 71.9641 18.0644 71.9639 18.0645C71.9635 18.0649 71.9628 18.0655 71.9618 18.0663C71.9597 18.068 71.9566 18.0707 71.9523 18.0743C71.9436 18.0814 71.9304 18.0923 71.9128 18.1067C71.8775 18.1354 71.8243 18.178 71.7542 18.2324C71.614 18.3411 71.4061 18.4971 71.1377 18.684C70.6007 19.0578 69.8225 19.5545 68.8604 20.0436C66.9334 21.0231 64.2837 21.9649 61.3625 21.8454L61.3421 22.3449ZM72.2847 18.448C76.0747 15.3341 77.8549 11.8609 78.6859 9.1619C79.1012 7.81323 79.2793 6.6586 79.3535 5.83916C79.3906 5.42938 79.4017 5.10319 79.4035 4.87817C79.4044 4.76565 79.403 4.6784 79.4013 4.61862C79.4004 4.58872 79.3995 4.56569 79.3988 4.5498C79.3984 4.54185 79.3981 4.53569 79.3979 4.53135C79.3978 4.52917 79.3977 4.52745 79.3976 4.5262C79.3975 4.52557 79.3975 4.52505 79.3975 4.52465C79.3975 4.52445 79.3975 4.52424 79.3975 4.52414C79.3975 4.52395 79.3974 4.5238 79.1479 4.53936C78.8984 4.55493 78.8984 4.55483 78.8984 4.55476C78.8984 4.55478 78.8984 4.55473 78.8984 4.55477C78.8984 4.55483 78.8984 4.555 78.8984 4.55529C78.8985 4.55587 78.8985 4.5569 78.8986 4.55839C78.8988 4.56135 78.899 4.56613 78.8993 4.57267C78.8999 4.58575 78.9007 4.60592 78.9015 4.63289C78.903 4.68684 78.9044 4.76799 78.9036 4.87419C78.9019 5.08659 78.8913 5.39902 78.8555 5.79407C78.784 6.5843 78.6116 7.70414 78.2081 9.01476C77.4015 11.6343 75.6707 15.0189 71.9673 18.0617L72.2847 18.448Z" fill="#3A4850"/>
    <path d="M27.3348 9.62695C27.2685 9.56066 27.1607 9.56066 27.0944 9.62695L22.5052 14.2162C22.4389 14.2825 22.4389 14.3903 22.5052 14.4566C22.5385 14.4899 22.582 14.5065 22.6252 14.5065C22.6687 14.5065 22.7122 14.4899 22.7455 14.4566L27.3348 9.86729C27.4011 9.80101 27.4011 9.69324 27.3348 9.62695" stroke="#B0BDC5" stroke-width="0.55"/>
    <path d="M33.8934 7.24733L24.8848 16.2559C24.8185 16.3222 24.8185 16.43 24.8848 16.4962C24.9181 16.5296 24.9616 16.5462 25.0051 16.5462C25.0483 16.5462 25.0918 16.5296 25.1251 16.4962L34.1337 7.48768C34.2 7.42139 34.2 7.31362 34.1337 7.24733C34.0674 7.18104 33.9597 7.18104 33.8934 7.24733" stroke="#B0BDC5" stroke-width="0.55"/>
    <path d="M60.3095 9.62695C60.2432 9.56066 60.1355 9.56066 60.0692 9.62695L55.4799 14.2162C55.4136 14.2825 55.4136 14.3903 55.4799 14.4566C55.5132 14.4899 55.5567 14.5065 55.5999 14.5065C55.6434 14.5065 55.6869 14.4899 55.7202 14.4566L60.3095 9.86729C60.3758 9.80101 60.3758 9.69324 60.3095 9.62695" stroke="#B0BDC5" stroke-width="0.55"/>
    <path d="M66.8681 7.24733L57.8595 16.2559C57.7932 16.3222 57.7932 16.43 57.8595 16.4962C57.8928 16.5296 57.9364 16.5462 57.9799 16.5462C58.023 16.5462 58.0666 16.5296 58.0999 16.4962L67.1084 7.48768C67.1747 7.42139 67.1747 7.31362 67.1084 7.24733C67.0421 7.18104 66.9344 7.18104 66.8681 7.24733" stroke="#B0BDC5" stroke-width="0.55"/>
</svg>
